<svg xmlns="http://www.w3.org/2000/svg" viewBox="0 0 1515.8 375.9"><g id="Layer_2" data-name="Layer 2"><g id="Layer_1-2" data-name="Layer 1"><path d="M739.6,140.13l-24,1.11v38l24-.88a13.88,13.88,0,0,0,11.27-5.66,21.89,21.89,0,0,0,4-13.37A24.51,24.51,0,0,0,751,145.58Q747.22,139.78,739.6,140.13Z"/><path d="M1008.23,135.07q-7.5-7.33-19.79-6.77t-19.61,8.52q-7.37,7.94-7.73,23.54-.36,10.27-.36,31.57t.36,32.31q.38,15.6,7.54,23.06t19.8,7.28q12.66-.22,20-8t7.71-23.64q.75-22.35.75-32.76,0-11.16-.75-31.94Q1015.75,142.45,1008.23,135.07Z"/><path d="M1506,84.44,1224.43,16.75a604.76,604.76,0,0,0-181.71-15.4L11.89,70.3A12.75,12.75,0,0,0,0,83V363.16A12.74,12.74,0,0,0,12.74,375.9H1503.06a12.74,12.74,0,0,0,12.74-12.74V96.82A12.73,12.73,0,0,0,1506,84.44ZM226.59,317.52a9.28,9.28,0,0,1-2,6,6,6,0,0,1-4.8,2.53l-45.05,0a5.79,5.79,0,0,1-4.67-2.48,9.22,9.22,0,0,1-2-5.9V232.6L152,266.43a23.17,23.17,0,0,1-3.76,5.63,7,7,0,0,1-5.19,2.24l-16.82.27a6.66,6.66,0,0,1-5.14-2.07,21.78,21.78,0,0,1-3.69-5.45l-15.63-32.64v83.51a9.2,9.2,0,0,1-1.89,5.8,5.53,5.53,0,0,1-4.47,2.44l-42,0a5.32,5.32,0,0,1-4.35-2.39,9.13,9.13,0,0,1-1.83-5.7V124.3a9.62,9.62,0,0,1,1.83-5.81,5.75,5.75,0,0,1,4.35-2.67L90,113.53q6.56-.41,10.1,7.6l34.5,71.77L169.81,117q3.67-8.62,10.57-9l39.39-2.46a5.6,5.6,0,0,1,4.8,2.23,8.78,8.78,0,0,1,2,5.87Zm182.14-.59a9.47,9.47,0,0,1-2.24,6.3,6.7,6.7,0,0,1-5.29,2.66L261.6,326a6.12,6.12,0,0,1-4.9-2.54,9.3,9.3,0,0,1-2-6V111.86a9.87,9.87,0,0,1,2-6.18,6.62,6.62,0,0,1,4.9-2.85L399,94.26a6.31,6.31,0,0,1,5.29,2.33,8.93,8.93,0,0,1,2.23,6.16V149.5a9.86,9.86,0,0,1-2.23,6.4,7.06,7.06,0,0,1-5.29,2.89l-81.57,3.69v20.39l75.47-3a6.42,6.42,0,0,1,5.27,2.43,9.16,9.16,0,0,1,2.22,6.21v43a9.67,9.67,0,0,1-2.22,6.34,6.81,6.81,0,0,1-5.27,2.77l-75.47,1.78v20.4l83.8-1.51a6.58,6.58,0,0,1,5.29,2.55,9.36,9.36,0,0,1,2.24,6.27ZM613.09,146.66a10.06,10.06,0,0,1-2.48,6.75,8,8,0,0,1-5.88,3.05l-50.66,2.2V316.45a9.59,9.59,0,0,1-2.41,6.55,7.34,7.34,0,0,1-5.71,2.76l-59.1.05a7,7,0,0,1-5.52-2.7A9.47,9.47,0,0,1,479,316.7V161.93L431.49,164a6.48,6.48,0,0,1-5.36-2.43,9.07,9.07,0,0,1-2.26-6.23V101.7a10,10,0,0,1,2.26-6.46,7.32,7.32,0,0,1,5.36-3L604.73,81.43a7.14,7.14,0,0,1,5.88,2.43,9.12,9.12,0,0,1,2.48,6.49ZM847.27,323.09a7.12,7.12,0,0,1-5.38,2.41l-70,.06q-6,0-9.54-3.07a16.49,16.49,0,0,1-4.84-6.7l-28.47-68.64-13.44.26v68.52a9.81,9.81,0,0,1-2.61,6.82,8.07,8.07,0,0,1-6.19,2.87l-62.76.06a7.75,7.75,0,0,1-6-2.81,9.66,9.66,0,0,1-2.51-6.68V89a10.25,10.25,0,0,1,2.51-6.83,8.33,8.33,0,0,1,6-3.19l95.54-6c32-2,57.3,4.29,75.73,19q27.88,22.23,27.94,64.45,0,24-10,42.66a89.31,89.31,0,0,1-27.14,30.73l42.4,83.43a9.64,9.64,0,0,1,1,4.08A8.09,8.09,0,0,1,847.27,323.09Zm269-100.24q-2.37,52-37.11,79.39c-22.86,18-53.19,27-90.68,27-36.86,0-65.78-8.67-87.06-25.88q-31.64-25.54-33.65-74.58-.36-10-.35-32.36,0-22.68.35-33.12,1-32,16-55.91t41.65-37.62q26.82-13.74,63-16.05,36.63-2.32,64.88,8.32,28.46,10.77,45.06,34.15,16.65,23.53,17.85,57.37.78,22,.79,35T1116.23,222.85Zm255.7-102.47c-4.61-.3-8.15.59-10.57,2.65s-4.14,5.94-5.09,11.59-1.42,13.9-1.42,24.7v73.9q0,30.38-3.57,47.75t-13.52,28.53c-11.51,12.52-28.86,18.88-52.63,18.88-21.24,0-38.6-3.31-51.67-10a61.47,61.47,0,0,1-29.15-31.09q-9.07-21-9.1-54.26V123.18q0-16.43-1.91-24.61t-6.74-12.35c-3.25-2.77-8.54-5.46-15.92-8.06a117,117,0,0,1-2.39-24.9c10.82,3.29,27.09,7.41,48.34,12.28,28.25,6.48,47.08,10.42,57.36,12q0,14.22-2,21.82c-6.72-.43-11.58,0-14.54,1.39s-5,4.35-6.19,9-1.74,12.27-1.74,23v98.77c0,23.36,3.81,41.31,11.35,53.74,7.43,12.26,19.28,18.51,35.25,18.87a40,40,0,0,0,16.33-3.14,30.88,30.88,0,0,0,13.13-10.08q5.7-7.74,8.22-20.88t2.52-39.21V157.93q0-17.19-1.77-26.63t-6-14.47c-2.81-3.36-7-6.09-12.74-8.22a149.11,149.11,0,0,1-1.54-21.73c7.54,2.43,17.87,5.14,30.8,8.11,12.24,2.8,21.69,4.64,28.5,5.54A103.77,103.77,0,0,1,1371.93,120.38ZM1451.06,296q1.28,6.15,4.52,8.82c2.14,1.77,5.35,2.91,9.58,3.4q1.58,6,1.58,18.34c-7.87-.63-18.76-1-32.9-1-15.58-.05-28.85.23-39.59.85a92.77,92.77,0,0,1,2.1-19.73c4.86-.32,8.43-1.36,10.74-3.12s3.91-4.73,4.84-8.95,1.39-10.65,1.39-19.34V160.54q0-13-1.39-19.51t-4.84-9.75c-2.31-2.18-5.88-4.11-10.74-5.77a83,83,0,0,1-2.1-20.22c9,2.72,21.93,6,38.38,9.77,13.7,3.14,25,5.43,34.11,6.92q0,11.7-1.58,18c-4.23-.29-7.44.15-9.58,1.33s-3.67,3.71-4.52,7.61-1.29,9.94-1.29,18.09V277.33Q1449.77,289.87,1451.06,296Z"/></g></g></svg>