<svg width="24" height="24" viewBox="0 0 24 24" fill="none" xmlns="http://www.w3.org/2000/svg">
<path d="M7.98254 2.01414C5.43024 2.01414 3.98254 3.46255 3.98254 6.01625V21.0241C3.98254 21.7424 4.72894 22.2134 5.38874 21.9308L11.9825 19.1168L18.5762 21.9308C19.2361 22.2138 19.9825 21.7422 19.9825 21.0241V6.01625C19.9825 3.39145 18.6778 2.01424 15.9825 2.01414H7.98254ZM14.9825 8.01735C15.2384 8.01725 15.506 8.10335 15.7012 8.29865C16.0917 8.68935 16.0917 9.34625 15.7012 9.73695L11.7012 13.739C11.3107 14.1299 10.6542 14.1297 10.2637 13.739L8.26374 11.738C7.87324 11.3473 7.87324 10.6904 8.26374 10.2997C8.65434 9.90885 9.31074 9.90905 9.70124 10.2997L10.9825 11.5816L14.2637 8.29865C14.459 8.10325 14.7265 8.01735 14.9825 8.01735Z" fill="black"/>
</svg>
