<svg width="24" height="24" viewBox="0 0 24 24" fill="none" xmlns="http://www.w3.org/2000/svg">
<path d="M11.9931 2.99068C11.7371 2.99068 11.5011 3.07668 11.3051 3.27168C10.3051 4.27169 4.30612 10.2717 3.30512 11.2717C2.67611 11.9017 3.1021 12.9907 3.9931 12.9907H6.99311V15.9907C6.99311 16.5427 7.44111 16.9907 7.99311 16.9907H15.9931C16.5451 16.9907 16.9931 16.5427 16.9931 15.9907V12.9907H19.9931C20.8841 12.9907 21.3421 11.9017 20.7121 11.2717L12.7121 3.27168C12.5161 3.07668 12.2491 2.99068 11.9931 2.99068ZM7.99311 18.9907C7.44111 18.9907 6.99311 19.4387 6.99311 19.9907C6.99311 20.5427 7.44111 20.9907 7.99311 20.9907H15.9931C16.5451 20.9907 16.9931 20.5427 16.9931 19.9907C16.9931 19.4387 16.5451 18.9907 15.9931 18.9907H7.99311Z" fill="black"/>
</svg>
