<svg width="24" height="24" viewBox="0 0 24 24" fill="none" xmlns="http://www.w3.org/2000/svg">
<path d="M12.0111 2.0141C11.1361 2.0141 10.2721 2.3471 9.60415 3.0141L2.29215 10.2951C1.90115 10.6861 1.90115 11.3421 2.29215 11.7331L4.01115 13.4521V17.0141C4.01115 19.223 5.80215 21.014 8.01115 21.014H16.0111C18.2201 21.014 20.0111 19.223 20.0111 17.0141V13.4521L21.7291 11.7331C22.1201 11.3421 22.1201 10.6861 21.7291 10.2951C21.3902 9.95608 20.1481 8.70809 19.0111 7.57609V5.01409C19.0111 4.46209 18.5631 4.01409 18.0111 4.01409C17.4581 4.01409 17.0111 4.46209 17.0111 5.01409V5.60808C15.9411 4.54309 14.7412 3.33809 14.4172 3.0141C13.7492 2.3471 12.8851 2.0141 12.0111 2.0141Z" fill="black"/>
</svg>
