<svg width="20" height="20" viewBox="0 0 20 20" fill="none" xmlns="http://www.w3.org/2000/svg">
<path d="M9.99913 1.67844C5.39678 1.67844 1.66577 5.40928 1.66577 10.0118C1.66577 14.6143 5.39678 18.3451 9.99913 18.3451C14.6015 18.3451 18.3325 14.6143 18.3325 10.0118C18.3325 5.40928 14.6015 1.67844 9.99913 1.67844ZM9.99913 5.84511C10.4594 5.84511 10.8325 6.21845 10.8325 6.67845C10.8325 7.13845 10.4594 7.51178 9.99913 7.51178C9.53888 7.51178 9.16579 7.13845 9.16579 6.67845C9.16579 6.21845 9.53888 5.84511 9.99913 5.84511ZM9.99913 8.34512C10.4594 8.34512 10.8325 8.71845 10.8325 9.17845V13.3451C10.8325 13.8051 10.4594 14.1785 9.99913 14.1785C9.53888 14.1785 9.16579 13.8051 9.16579 13.3451V9.17845C9.16579 8.71845 9.53888 8.34512 9.99913 8.34512Z" fill="#348cff"/>
</svg>
