<?xml version="1.0" encoding="utf-8"?>
<svg version="1.1" id="Layer_1" xmlns="http://www.w3.org/2000/svg" xmlns:xlink="http://www.w3.org/1999/xlink" x="0px" y="0px"
	 viewBox="0 0 886.2 250.8" style="enable-background:new 0 0 886.2 250.8;" xml:space="preserve">
<style type="text/css">
	.st0{fill:#FFFFFF;stroke:#000000;stroke-miterlimit:10;}
	.st1{fill:#FFFFFF;}
	.st2{opacity:0.57;fill:#F75E5E;}
	.st3{fill:none;}
	.st4{fill:#F9F9F9;}
	.st5{fill:#191919;}
</style>
<path d="M740.8,4150.5H-401.3c-9.3,0-16.8-7.5-16.8-16.8v-489.2c0-9.3,7.5-16.8,16.8-16.8H740.8c9.3,0,16.8,7.5,16.8,16.8v489.2
	C757.6,4143,750.1,4150.5,740.8,4150.5z"/>
<polygon points="3557.4,2659.8 2167.6,2659.8 2168,2355.8 3173.2,2279.5 3557.4,2433.4 "/>
<path d="M3314.1,307.8H2170c-14.2,0-25.7-13.4-25.7-29.9V10.7c0-14.8,9.3-27.4,21.9-29.6l1136.1-195.5c1.8,50.8,11.1,60.8,11.1,79.1
	l8.2,385.1C3321.6,266.3,3313.7,268.7,3314.1,307.8z"/>
<g style="mix-blend-mode:difference">
	<g>
		<path d="M541.7-353.4c-2.1-1.8-5-2.5-8.7-2.2l-20.7,1.7l0.6,27.9l20.7-1.4c5-0.3,8.6-2.4,10.8-6.1c2.2-3.8,2.8-8.3,1.6-12.5
			C545.5-348.9,543.9-351.5,541.7-353.4z"/>
		<path d="M912-535.9L-4.7-393.2c-14.1,2.2-24.5,14.3-24.5,28.6v169.4c0,16,12.9,28.9,28.9,28.9c0,0,0,0,0,0h915
			c15.9,0,28.8-12.8,28.9-28.7l1.8-312.1c0.1-16-12.7-29-28.7-29.1C915.1-536.3,913.6-536.2,912-535.9z M141.2-219.5
			c-0.7,1-1.9,1.6-3.1,1.6l-29.6,0.1c-1.2,0-2.4-0.6-3.1-1.6c-0.9-1-1.4-2.4-1.4-3.7l-1.5-54.1l-9.7,21.7c-0.7,1.3-1.5,2.6-2.5,3.7
			c-0.8,0.9-2,1.4-3.2,1.4l-10.7,0.3c-2.2,0.1-4.1-1.5-5.6-4.6l-10.6-20.3l1.5,52.2c0.1,1.3-0.3,2.6-1,3.6c-0.6,0.9-1.6,1.5-2.8,1.5
			l-26,0.1c-1.1,0-2.1-0.6-2.7-1.5c-0.8-1-1.3-2.2-1.3-3.5l-3.3-120c-0.1-1.3,0.3-2.6,1-3.7c0.5-1,1.5-1.6,2.6-1.8l22.7-2.6
			c2.5-0.3,4.7,1.2,6.6,4.4l23.1,44.4l21.4-49.2c1.3-3.7,3.5-5.8,6.6-6.1l25.9-2.9c1.2-0.1,2.5,0.3,3.3,1.3c1,1,1.5,2.3,1.5,3.7
			l3.3,131.7C142.5-222,142.1-220.6,141.2-219.5z M267.5-220c-0.9,1.1-2.3,1.8-3.7,1.8L166-218c-1.3,0-2.6-0.6-3.4-1.6
			c-1-1.1-1.5-2.5-1.6-3.9l-3.2-133.6c-0.1-1.5,0.3-2.9,1.2-4.1c0.7-1.1,1.9-1.8,3.2-2l96.4-11c1.4-0.2,2.9,0.3,3.9,1.4
			c1.1,1.1,1.8,2.5,1.8,4.1l0.7,31.6c0,1.6-0.6,3.2-1.6,4.4c-0.9,1.2-2.3,2-3.8,2.1l-58,4.8l0.2,13.5l53.6-3.9
			c1.5-0.1,2.9,0.4,3.9,1.5c1.1,1.1,1.8,2.6,1.8,4.1l0.6,29c0.1,1.6-0.5,3.1-1.5,4.3c-0.9,1.2-2.3,1.9-3.8,2l-53.5,2.3l0.4,13.4
			l59.5-2c1.5-0.1,2.9,0.6,3.8,1.7c1.1,1.1,1.7,2.6,1.7,4.2l0.7,31.5C269.1-222.7,268.6-221.2,267.5-220z M421.5-341
			c-1.2,1.4-2.9,2.2-4.7,2.4l-40.3,3.2l2,110.4c0.1,1.7-0.5,3.4-1.7,4.6c-1.1,1.2-2.7,1.9-4.4,1.9l-45.4,0.1c-1.6,0-3.2-0.7-4.3-1.9
			c-1.2-1.1-1.9-2.7-2-4.4l-2-106.2l-35.4,2.8c-1.5,0.1-3-0.4-4-1.5c-1.1-1.1-1.8-2.6-1.9-4.2l-0.7-36.5c-0.1-1.6,0.4-3.2,1.5-4.5
			c0.9-1.3,2.3-2.1,3.9-2.3l133.6-15.2c3.5-0.4,6.6,2.1,7,5.5c0,0.2,0,0.3,0,0.5l0.5,40.2C423.3-344.1,422.7-342.3,421.5-341
			L421.5-341z M631.4-221c-1.4,1.2-3.2,1.9-5,1.8l-63,0.2c-3.6,0-6.3-0.7-8.4-2.3c-1.8-1.3-3.3-3-4.3-4.9l-25.4-50.2l-11.6,0.4
			l0.7,50.1c0.1,1.9-0.7,3.8-2.2,5c-1.4,1.4-3.4,2.1-5.3,2.1l-52.6,0.1c-1.8,0-3.6-0.7-4.9-2c-1.3-1.2-2.1-3-2.2-4.8l-2.9-163
			c-0.1-1.9,0.7-3.7,2-5.1c1.3-1.5,3.1-2.4,5-2.6l81.1-9.2c24.3-2.8,44.7-0.5,60.7,6.8c16.3,7.5,26.7,19.5,30.9,35.8
			c1.3,5,1.9,10.2,2,15.3c0.3,11.5-2.8,22.9-8.9,32.7c-6.1,9.7-14.4,17.8-24.1,23.8l39.3,62.3c0.6,0.9,1,2,1.1,3.1
			C633.5-223.7,632.7-222.1,631.4-221z M893.3-303.7c-1.5,29.5-12.7,51.5-33.2,66c-20.1,14.1-50.7,21.1-91,21.1
			c-19.1,0.2-38.2-2.4-56.6-7.5c-17.1-5-31.4-12.2-43-21.8s-18.9-21-22.4-34.5c-1.1-4-1.7-8.2-1.9-12.4c-1-14.9-1.2-31.6-0.7-50
			c0.8-25.7,9.5-46,26-61c16.9-15.3,43.9-25.2,81.9-29.6c19.8-2.4,39.8-1.8,59.5,1.8c19.6,3.6,36.6,10.2,50.7,19.9
			c14.3,9.8,23.7,22.2,28,37.1c1.4,4.6,2.2,9.3,2.3,14.1C893.9-342.9,894-324,893.3-303.7z"/>
		<path d="M787.4-359.5c-1.6-5.8-4.8-10-9.5-12.6c-4.7-2.6-10.5-3.6-17.5-3c-8.1,0.7-14.6,3.2-19.3,7.6c-4.7,4.4-7.2,10.7-7.4,18.8
			c-0.7,16.6-0.5,33.3,0.4,50.1c0.1,2.4,0.5,4.8,1.2,7.1c3,11.2,11.7,16.6,26.1,16.1c17.7-0.6,26.9-9.1,27.5-25.7
			c0.6-17.6,0.5-34.8-0.3-51.5C788.5-354.9,788.1-357.2,787.4-359.5z"/>
	</g>
</g>
<g>
	<g>
		<path d="M-472.6,140.6c-2.1-1.8-5-2.5-8.7-2.2l-20.7,1.7l0.6,27.9l20.7-1.4c5-0.3,8.6-2.4,10.8-6.1c2.2-3.8,2.8-8.3,1.6-12.5
			C-468.9,145.2-470.4,142.6-472.6,140.6z"/>
		<path d="M-102.3-41.9l-916.8,142.8c-14.1,2.2-24.5,14.3-24.5,28.6v169.4c0,16,12.9,28.9,28.9,28.9c0,0,0,0,0,0h915
			c15.9,0,28.8-12.8,28.9-28.7l1.8-312.1c0.1-16-12.7-29-28.7-29.1C-99.2-42.3-100.8-42.1-102.3-41.9z M-873.2,274.5
			c-0.7,1-1.9,1.6-3.1,1.6l-29.6,0.1c-1.2,0-2.4-0.6-3.1-1.6c-0.9-1-1.4-2.4-1.5-3.7l-1.5-54.1l-9.7,21.7c-0.7,1.3-1.5,2.6-2.5,3.7
			c-0.8,0.9-2,1.4-3.2,1.4l-10.7,0.3c-2.2,0.1-4.1-1.5-5.6-4.6l-10.6-20.3l1.5,52.2c0.1,1.3-0.3,2.6-1,3.6c-0.6,0.9-1.6,1.5-2.8,1.5
			l-26,0.1c-1.1,0-2.1-0.6-2.7-1.5c-0.8-1-1.3-2.2-1.3-3.5l-3.3-120c-0.1-1.3,0.3-2.6,1-3.7c0.5-1,1.5-1.6,2.6-1.8l22.7-2.6
			c2.5-0.3,4.7,1.2,6.6,4.4l23.1,44.4l21.4-49.2c1.3-3.7,3.5-5.8,6.6-6.1l25.9-2.9c1.2-0.1,2.5,0.3,3.3,1.3c1,1,1.5,2.3,1.5,3.7
			l3.3,131.7C-871.8,272-872.3,273.4-873.2,274.5z M-746.8,274c-0.9,1.1-2.3,1.8-3.7,1.8l-97.8,0.3c-1.3,0-2.6-0.6-3.4-1.6
			c-1-1.1-1.5-2.5-1.6-3.9l-3.2-133.6c-0.1-1.5,0.3-2.9,1.2-4.1c0.7-1.1,1.9-1.8,3.2-2l96.3-11c1.4-0.2,2.9,0.3,3.9,1.4
			c1.1,1.1,1.8,2.5,1.8,4.1l0.7,31.7c0,1.6-0.6,3.2-1.6,4.4c-0.9,1.2-2.3,2-3.8,2.1l-58,4.8l0.2,13.5l53.6-3.9
			c1.5-0.1,2.9,0.4,3.9,1.5c1.1,1.1,1.8,2.6,1.8,4.1l0.6,29c0.1,1.6-0.5,3.1-1.5,4.3c-0.9,1.2-2.3,1.9-3.8,2l-53.5,2.3l0.4,13.4
			l59.5-2c1.5-0.1,2.9,0.6,3.8,1.7c1.1,1.1,1.7,2.6,1.7,4.2l0.7,31.5C-745.2,271.3-745.8,272.8-746.8,274z M-592.9,153
			c-1.2,1.4-2.9,2.2-4.7,2.4l-40.3,3.2l2,110.4c0.1,1.7-0.5,3.4-1.7,4.6c-1.1,1.2-2.7,1.9-4.4,1.9l-45.4,0.1c-1.6,0-3.2-0.7-4.3-1.9
			c-1.2-1.1-1.9-2.7-2-4.4l-2-106.2L-731,166c-1.5,0.1-3-0.4-4-1.5c-1.1-1.1-1.8-2.6-1.9-4.2l-0.7-36.5c-0.1-1.6,0.4-3.2,1.5-4.5
			c0.9-1.3,2.3-2.1,3.9-2.3l133.6-15.2c3.5-0.4,6.6,2.1,7,5.5c0,0.2,0,0.3,0,0.5l0.5,40.2C-591,149.9-591.6,151.7-592.9,153
			L-592.9,153z M-382.9,273c-1.4,1.2-3.2,1.9-5,1.8l-63,0.2c-3.6,0-6.3-0.7-8.4-2.3c-1.8-1.3-3.3-3-4.3-4.9l-25.4-50.2l-11.6,0.4
			l0.7,50.1c0.1,1.9-0.7,3.8-2.2,5c-1.4,1.4-3.4,2.1-5.3,2.1l-52.6,0.1c-1.8,0-3.6-0.7-4.9-2c-1.3-1.2-2.1-3-2.2-4.8l-2.9-163
			c-0.1-1.9,0.7-3.7,2-5.1c1.3-1.5,3.1-2.4,5-2.6l81.1-9.2c24.3-2.8,44.7-0.5,60.7,6.8c16.3,7.5,26.7,19.5,30.9,35.8
			c1.3,5,1.9,10.2,2,15.3c0.3,11.5-2.8,22.9-8.9,32.7c-6.1,9.7-14.4,17.8-24.1,23.8l39.3,62.3c0.6,0.9,1,2,1.1,3.1
			C-380.8,270.3-381.6,271.9-382.9,273z M-121.1,190.4c-1.5,29.5-12.7,51.5-33.2,66c-20.1,14.1-50.7,21.1-91,21.1
			c-19.1,0.2-38.2-2.4-56.6-7.5c-17.1-5-31.4-12.2-43-21.8s-18.9-21-22.4-34.5c-1.1-4-1.7-8.2-1.9-12.4c-1-14.9-1.2-31.6-0.7-50
			c0.8-25.7,9.5-46,26-61C-327,74.9-300,65-262,60.7c19.8-2.4,39.8-1.8,59.5,1.8c19.6,3.6,36.6,10.2,50.7,19.8
			c14.3,9.8,23.7,22.2,28,37.1c1.4,4.6,2.2,9.3,2.3,14.1C-120.5,151.1-120.3,170.1-121.1,190.4z"/>
		<path d="M-226.9,134.6c-1.6-5.8-4.8-10-9.5-12.6c-4.7-2.6-10.5-3.6-17.5-3c-8.1,0.7-14.6,3.2-19.3,7.6c-4.7,4.4-7.2,10.7-7.4,18.8
			c-0.7,16.6-0.5,33.3,0.4,50.1c0.1,2.4,0.5,4.8,1.2,7.1c3,11.2,11.7,16.6,26.1,16.1c17.7-0.6,26.9-9.1,27.5-25.7
			c0.6-17.6,0.5-34.8-0.3-51.5C-225.9,139.2-226.3,136.8-226.9,134.6z"/>
	</g>
</g>
<text transform="matrix(1 0 0 1 1038.2091 741.5541)" style="font-family:'Rubik-Black'; font-size:300px;">UI</text>
<g>
	<text transform="matrix(1 0 0 1 12.8024 1580.2351)"><tspan x="0" y="0" style="font-family:'Rubik-Black'; font-size:300px;">MET</tspan><tspan x="659.1" y="0" style="font-family:'Rubik-Black'; font-size:300px; letter-spacing:-1;">R</tspan><tspan x="874.5" y="0" style="font-family:'Rubik-Black'; font-size:300px;">O</tspan></text>
</g>
<g>
	<text transform="matrix(1 0 0 1 -380.8069 3992.9988)"><tspan x="0" y="0" class="st1" style="font-family:'Rubik-Black'; font-size:300px;">MET</tspan><tspan x="659.1" y="0" class="st1" style="font-family:'Rubik-Black'; font-size:300px; letter-spacing:-1;">R</tspan><tspan x="874.5" y="0" class="st1" style="font-family:'Rubik-Black'; font-size:300px;">O</tspan></text>
</g>
<g>
	<path class="st0" d="M2185.1,247.9c-0.9-1.6-1.3-3.5-1.3-5.7V48.4c0-2.2,0.4-4.2,1.3-5.9c0.9-1.7,1.9-2.7,3.2-2.9l26.9-4.3
		c3.2-0.5,5.8,1.8,7.5,7.1l26,71.5l27-79.7c1.9-6.1,4.6-9.4,8.2-10l31-5c1.5-0.2,2.7,0.4,3.8,2c1.1,1.6,1.6,3.6,1.6,6V241
		c0,2.4-0.5,4.5-1.6,6.3c-1.1,1.8-2.3,2.6-3.8,2.7l-35.4,0.1c-1.4,0-2.6-0.8-3.6-2.6c-1-1.7-1.5-3.7-1.5-6.1v-87.8l-12.4,35.2
		c-0.9,2.4-1.8,4.3-2.9,5.8c-1,1.5-2.4,2.3-4,2.4l-12.8,0.5c-1.6,0.1-2.9-0.6-3.9-2c-1-1.4-1.9-3.2-2.8-5.5l-11.7-32.8v84.7
		c0,2.3-0.5,4.2-1.4,5.9c-0.9,1.7-2,2.5-3.3,2.5l-30.9,0.1C2187,250.3,2186,249.5,2185.1,247.9z"/>
	<path class="st0" d="M2344.4,247.2c-1.1-1.8-1.7-3.9-1.7-6.4V23.7c0-2.5,0.6-4.7,1.7-6.7c1.1-2,2.4-3.1,4-3.3L2464.3-5
		c1.8-0.3,3.3,0.4,4.6,2.2c1.3,1.7,2,3.9,2,6.6v51.5c0,2.7-0.7,5.1-2,7.2c-1.3,2.1-2.9,3.3-4.6,3.5l-69.9,8.2V96l64.6-6.6
		c1.8-0.2,3.3,0.6,4.6,2.4c1.3,1.8,1.9,4.1,1.9,6.7v47.3c0,2.7-0.7,5-1.9,7c-1.3,2-2.8,3.1-4.6,3.2l-64.6,3.9V182l71.9-3.3
		c1.8-0.1,3.3,0.8,4.7,2.7c1.3,1.9,2,4.2,2,6.9v51.6c0,2.7-0.7,5-2,7c-1.3,2-2.9,2.9-4.7,2.9l-117.9,0.3
		C2346.8,249.9,2345.5,249,2344.4,247.2z"/>
	<path class="st0" d="M2538.2,246.4c-1.4-2-2.1-4.4-2.1-7.2v-174l-43,4.8c-1.9,0.2-3.4-0.6-4.8-2.4c-1.3-1.8-2-4.1-2-6.8V1.5
		c0-2.7,0.7-5.1,2-7.3c1.3-2.2,2.9-3.4,4.8-3.7l162.7-26.2c2.2-0.4,4.2,0.4,5.8,2.3c1.6,1.9,2.5,4.4,2.5,7.4v65.9
		c0,3-0.8,5.7-2.5,8.1c-1.6,2.4-3.6,3.7-5.8,3.9l-49.3,5.5v181.3c0,2.9-0.8,5.4-2.3,7.5c-1.5,2.1-3.4,3.2-5.5,3.2l-55.4,0.1
		C2541.3,249.4,2539.6,248.4,2538.2,246.4z"/>
	<path class="st0" d="M2689.1,245.8c-1.7-2.2-2.5-4.8-2.5-7.9V-29.6c0-3,0.8-5.8,2.5-8.3c1.7-2.5,3.7-3.9,6-4.3l99.5-16
		c34.6-5.6,62.6-0.3,83.2,16.1c21,16.8,31.7,43,31.7,78.3c0,20.1-3.8,38.2-11.5,54.1c-7.6,15.8-17.8,29-30.6,39.5l48.1,103.3
		c0.8,1.9,1.2,3.6,1.2,5.1c0,2.8-0.9,5.2-2.6,7.2c-1.7,2-3.8,3-6.2,3l-78.3,0.2c-4.4,0-7.9-1.2-10.4-3.8c-2.5-2.5-4.3-5.2-5.3-8.2
		l-30.6-83l-14.3,0.7v82.7c0,3.2-0.9,5.9-2.8,8.2c-1.8,2.3-4,3.5-6.5,3.5l-64.7,0.1C2692.8,249.1,2690.7,248,2689.1,245.8z
		 M2794.6,69.9c5.2-0.5,9.3-3,12.1-7.6c2.9-4.6,4.3-10.1,4.3-16.6c0-6.5-1.4-12-4.1-16.6c-2.8-4.5-6.9-6.5-12.3-5.8l-25.5,3v45.9
		L2794.6,69.9z"/>
	<path class="st0" d="M2977.7,220.1c-24.9-21.4-38-52.7-39.6-94.1c-0.3-8.5-0.4-22.1-0.4-41c0-19.2,0.1-33.1,0.4-42
		c0.8-27.1,7-51.1,18.8-72.3c11.9-21.4,28.3-38.8,49.7-52.5c21.7-13.9,47.6-23.4,77.8-28.3c31-5.1,59-4.1,83.6,3.1
		c25.2,7.4,45.4,21,60.3,41.1c15.1,20.3,23.3,46,24.4,77c0.7,20.2,1.1,36.3,1.1,48.2c0,11.9-0.4,27.7-1.1,47.3
		c-2.2,47.8-19.2,84.6-50.4,109.9c-30.4,24.6-70.1,36.7-118,36.7C3038.5,253.3,3003.2,242.1,2977.7,220.1z M3109.7,143.6
		c6.3-7.1,9.5-17.7,9.9-31.7c0.6-19.9,1-34.4,1-43.6c0-9.9-0.3-24.1-1-42.5c-0.3-14-3.7-24-10.1-30.1c-6.4-6-14.8-8.4-25.1-7.2
		c-10.3,1.2-18.4,5.5-24.6,12.9c-6.1,7.3-9.3,17.8-9.6,31.4c-0.3,9-0.5,22.7-0.5,41.3c0,18.5,0.1,32.6,0.5,42.2
		c0.3,13.6,3.4,23.5,9.4,29.8c6,6.4,14.2,9.3,24.8,8.9C3095,154.4,3103.5,150.7,3109.7,143.6z"/>
</g>
<path d="M3908.2,307.8h-606.4v-522.2h606.4c23.9,0,43.2,19.3,43.2,43.2v435.8C3951.4,288.4,3932,307.8,3908.2,307.8z"/>
<g>
	<path class="st0" d="M3395.4,218.9c-30.1-23.6-45.2-58.9-45.2-106v-211c0-3.8,1.4-7,4.1-9.8c2.7-2.7,6-4.1,9.8-4.1h101.1
		c3.8,0,7,1.4,9.8,4.1c2.7,2.8,4.1,6,4.1,9.8v209c0,13.1,3.2,23,9.5,29.7c6.4,6.7,15.9,10.1,28.6,10.1c12.7,0,22.3-3.4,28.6-10.1
		c6.4-6.7,9.5-16.6,9.5-29.7v-209c0-3.8,1.4-7,4.1-9.8c2.7-2.7,6-4.1,9.8-4.1h101.1c3.8,0,7,1.4,9.8,4.1c2.7,2.8,4.1,6,4.1,9.8v211
		c0,47.1-15,82.5-44.9,106c-29.9,23.6-70.5,35.3-121.8,35.3C3466.4,254.2,3425.5,242.4,3395.4,218.9z"/>
	<path class="st0" d="M3742.4,244.9c-2.8-2.7-4.1-6-4.1-9.8V-98.2c0-3.8,1.4-7,4.1-9.8c2.7-2.7,6-4.1,9.8-4.1h105.3
		c3.8,0,7,1.4,9.8,4.1c2.7,2.8,4.1,6,4.1,9.8v333.3c0,3.8-1.4,7.1-4.1,9.8c-2.8,2.8-6,4.1-9.8,4.1h-105.3
		C3748.5,249,3745.2,247.7,3742.4,244.9z"/>
</g>
<path d="M3339.7,1107.8H2195.6c-14.2,0-25.7-13.4-25.7-29.9V810.6c0-14.8,9.3-27.4,21.9-29.6l1136.1-195.5
	c1.8,50.8,11.1,60.8,11.1,79.1l8.2,385.1C3347.2,1066.3,3339.3,1068.7,3339.7,1107.8z"/>
<path d="M3977,1107.8h-649.6V585.6l479.9,146.7C3908.1,763,3977,856.1,3977,961.5L3977,1107.8z"/>
<path d="M2166.3,776.2"/>
<path d="M2292.1,1659.1l1002-164.4c22.3-3.7,45.1-2.3,66.8,4l514.4,149.3c64.7,18.8,109.2,78.1,109.2,145.5v217.8h-656.6H2163.2
	l1.9-204.1C2165.8,1733.5,2219.4,1671,2292.1,1659.1z"/>
<g>
	<path class="st0" d="M2210.7,1968.8c-0.9-1.6-1.3-3.5-1.3-5.7v-193.8c0-2.2,0.4-4.2,1.3-5.9c0.9-1.7,1.9-2.7,3.2-2.9l26.9-4.3
		c3.2-0.5,5.8,1.8,7.5,7.1l26,71.5l27-79.7c1.9-6.1,4.6-9.4,8.2-10l31-5c1.5-0.2,2.7,0.4,3.8,2c1.1,1.6,1.6,3.6,1.6,6V1962
		c0,2.4-0.5,4.5-1.6,6.3c-1.1,1.8-2.3,2.6-3.8,2.7l-35.4,0.1c-1.4,0-2.6-0.8-3.6-2.6c-1-1.7-1.5-3.7-1.5-6.1v-87.8l-12.4,35.2
		c-0.9,2.4-1.8,4.3-2.9,5.8c-1,1.5-2.4,2.3-4,2.4l-12.8,0.5c-1.6,0.1-2.9-0.6-3.9-2c-1-1.4-1.9-3.2-2.8-5.5l-11.7-32.8v84.7
		c0,2.3-0.5,4.2-1.4,5.9c-0.9,1.7-2,2.5-3.3,2.5l-30.9,0.1C2212.7,1971.2,2211.6,1970.4,2210.7,1968.8z"/>
	<path class="st0" d="M2370,1968.1c-1.1-1.8-1.7-3.9-1.7-6.4v-217.1c0-2.5,0.6-4.7,1.7-6.7c1.1-2,2.4-3.1,4-3.3l115.9-18.7
		c1.8-0.3,3.3,0.4,4.6,2.2c1.3,1.7,2,3.9,2,6.6v51.5c0,2.7-0.7,5.1-2,7.2c-1.3,2.1-2.9,3.3-4.6,3.5l-69.9,8.2v21.9l64.6-6.6
		c1.8-0.2,3.3,0.6,4.6,2.4c1.3,1.8,1.9,4.1,1.9,6.7v47.3c0,2.7-0.7,5-1.9,7c-1.3,2-2.8,3.1-4.6,3.2l-64.6,3.9v21.9l71.9-3.3
		c1.8-0.1,3.3,0.8,4.7,2.7c1.3,1.9,2,4.2,2,6.9v51.6c0,2.7-0.7,5-2,7c-1.3,2-2.9,2.9-4.7,2.9l-117.9,0.3
		C2372.5,1970.8,2371.1,1969.9,2370,1968.1z"/>
	<path class="st0" d="M2563.8,1967.4c-1.4-2-2.1-4.4-2.1-7.2v-174l-43,4.8c-1.9,0.2-3.4-0.6-4.8-2.4c-1.3-1.8-2-4.1-2-6.8v-59.4
		c0-2.7,0.7-5.1,2-7.3c1.3-2.2,2.9-3.4,4.8-3.7l162.7-26.2c2.2-0.4,4.2,0.4,5.8,2.3c1.6,1.9,2.5,4.4,2.5,7.4v65.9
		c0,3-0.8,5.7-2.5,8.1c-1.6,2.4-3.6,3.7-5.8,3.9l-49.3,5.5v181.3c0,2.9-0.8,5.4-2.3,7.5c-1.5,2.1-3.4,3.2-5.5,3.2l-55.4,0.1
		C2567,1970.4,2565.3,1969.4,2563.8,1967.4z"/>
	<path class="st0" d="M2714.7,1966.7c-1.7-2.2-2.5-4.8-2.5-7.9v-267.5c0-3,0.8-5.8,2.5-8.3c1.7-2.5,3.7-3.9,6-4.3l99.5-16
		c34.6-5.6,62.6-0.3,83.2,16.1c21,16.8,31.7,43,31.7,78.3c0,20.1-3.8,38.2-11.5,54.1c-7.6,15.8-17.8,29-30.6,39.5l48.1,103.3
		c0.8,1.9,1.2,3.6,1.2,5.1c0,2.8-0.9,5.2-2.6,7.2c-1.7,2-3.8,3-6.2,3l-78.3,0.2c-4.4,0-7.9-1.2-10.4-3.8c-2.5-2.5-4.3-5.2-5.3-8.2
		l-30.6-83l-14.3,0.7v82.7c0,3.2-0.9,5.9-2.8,8.2c-1.8,2.3-4,3.5-6.5,3.5l-64.7,0.1C2718.4,1970,2716.4,1968.9,2714.7,1966.7z
		 M2820.2,1790.8c5.2-0.5,9.3-3,12.1-7.6c2.9-4.6,4.3-10.1,4.3-16.6c0-6.5-1.4-12-4.1-16.6c-2.8-4.5-6.9-6.5-12.3-5.8l-25.5,3v45.9
		L2820.2,1790.8z"/>
	<path class="st0" d="M3003.4,1941.1c-24.9-21.4-38-52.7-39.6-94.1c-0.3-8.5-0.4-22.1-0.4-41c0-19.2,0.1-33.1,0.4-42
		c0.8-27.1,7-51.1,18.8-72.3c11.9-21.4,28.3-38.8,49.7-52.5c21.7-13.9,47.6-23.4,77.8-28.3c31-5.1,59-4.1,83.6,3.1
		c25.2,7.4,45.4,21,60.3,41.1c15.1,20.3,23.3,46,24.4,77c0.7,20.2,1.1,36.3,1.1,48.2c0,11.9-0.4,27.7-1.1,47.3
		c-2.2,47.8-19.2,84.6-50.4,109.9c-30.4,24.6-70.1,36.7-118,36.7C3064.1,1974.2,3028.9,1963,3003.4,1941.1z M3135.3,1864.5
		c6.3-7.1,9.5-17.7,9.9-31.7c0.6-19.9,1-34.4,1-43.6c0-9.9-0.3-24.1-1-42.5c-0.3-14-3.7-24-10.1-30.1c-6.4-6-14.8-8.4-25.1-7.2
		c-10.3,1.2-18.4,5.5-24.6,12.9c-6.1,7.3-9.3,17.8-9.6,31.4c-0.3,9-0.5,22.7-0.5,41.3c0,18.5,0.1,32.6,0.5,42.2
		c0.3,13.6,3.4,23.5,9.4,29.8c6,6.4,14.2,9.3,24.8,8.9C3120.7,1875.4,3129.1,1871.6,3135.3,1864.5z"/>
</g>
<g>
	<path class="st0" d="M3443,1941.4c-44-24.3-67.1-60.5-67.1-107.7v-211c0-3.8,2.1-6.5,6.4-8.2c4.2-1.7,9.2-1.8,15-0.3l138.2,34.8
		c4.7,1.2,8.6,3.4,12,6.7c3.3,3.3,5,6.5,5,9.9v183.6c0,11.5,3.8,20.5,11.4,27c7.5,6.4,18.5,10.1,33,11.1c14.1,1,24.5-1,31.3-6.1
		c6.7-5,10.1-12.8,10.1-23.5v-171.3c0-3.1,1.4-5.4,4.3-7c2.9-1.5,6.2-1.8,10.1-0.8l95,23.9c3.3,0.8,6.1,2.5,8.4,5.2
		c2.3,2.6,3.5,5.3,3.5,8.1V1871c0,34.7-12.8,60.2-39.3,77.1c-27.9,17.8-67.9,27-122.8,27C3536.8,1975.1,3484.4,1964.2,3443,1941.4z"
		/>
	<path class="st0" d="M3806.2,1968.6c-2.1-2-3.2-4.3-3.2-6.9v-235.5c0-2.7,1.1-4.7,3.2-6.1c2.1-1.4,4.6-1.7,7.5-1l74.3,18.7
		c2.5,0.6,4.6,2,6.4,4.3c1.8,2.2,2.7,4.5,2.7,7v213.9c0,2.4-0.9,4.5-2.7,6.3c-1.8,1.8-3.9,2.6-6.4,2.6l-74.3-0.3
		C3810.8,1971.5,3808.3,1970.6,3806.2,1968.6z"/>
</g>
<g>
	<path class="st1" d="M2221.9,2608.3c-0.9-1.6-1.3-3.5-1.3-5.7v-193.8c0-2.2,0.4-4.2,1.3-5.9c0.9-1.8,2-2.8,3.2-3l27.4-4.9
		c3.3-0.6,5.9,1.7,7.7,7l26.6,71.4l27.8-80.9c2-6.2,4.8-9.6,8.5-10.3l32.1-5.8c1.5-0.3,2.9,0.4,4,2c1.1,1.6,1.7,3.6,1.7,6.1v216.9
		c0,2.5-0.6,4.6-1.7,6.4c-1.1,1.8-2.4,2.7-4,2.7l-36.7,0.1c-1.4,0-2.7-0.9-3.7-2.6c-1-1.7-1.6-3.8-1.6-6.1v-88.7l-12.8,35.6
		c-0.9,2.4-1.9,4.4-3,5.9c-1.1,1.5-2.4,2.3-4.1,2.4l-13.1,0.6c-1.6,0.1-2.9-0.6-4-2c-1-1.4-2-3.2-2.8-5.5l-12-32.9v85
		c0,2.3-0.5,4.2-1.4,5.9c-1,1.7-2.1,2.5-3.4,2.5l-31.5,0.1C2223.9,2610.7,2222.8,2609.9,2221.9,2608.3z"/>
	<path class="st1" d="M2394.9,2590.8c-11-15-16.4-37.8-16.4-68.6v-2.4c0.3-28.8,6-51.6,17.2-68.6c11.4-17.2,27.1-27.3,47.4-30.1
		c15-2.1,28,0.6,38.7,8.1c10.9,7.6,19,18.7,24.3,33.4c5.4,14.8,8.1,31.7,8.1,50.7v11.2c0,2.8-0.7,5.2-2.1,7.2c-1.4,2.1-3,3.2-5,3.3
		l-73.5,3.9v1.8c0,7.3,0.7,12.7,2.1,16.2c1.4,3.5,3.8,5.2,7.1,5.1c1.3,0,2.3-0.5,3.1-1.4c0.8-0.9,2.1-2.6,3.8-5.3
		c1.4-2.2,2.6-3.6,3.6-4.3c1-0.6,2.4-1,4.4-1.1l47.3-2.1c1.6-0.1,2.9,0.6,4,1.9c1.1,1.3,1.7,3.1,1.7,5.3c0,7-2.7,15.2-8,24.7
		c-5.3,9.4-13.2,17.4-23.5,24.1c-10.2,6.6-22.2,9.9-35.9,9.9C2422.1,2613.7,2406.1,2606,2394.9,2590.8z M2452.6,2493.1v-0.4
		c0-15.1-3.2-22.3-9.6-21.6c-6.3,0.6-9.4,8.4-9.4,23.3v0.4L2452.6,2493.1z"/>
	<path class="st1" d="M2570.8,2590.6c-12.3-12.6-18.4-33.6-18.4-63.3v-50l-21.5,1.9c-2,0.2-3.7-0.7-5.1-2.6c-1.4-1.9-2.1-4.2-2.1-7
		V2424c0-2.8,0.7-5.2,2.1-7.4c1.4-2.2,3.1-3.4,5.1-3.7l21.5-2.9v-62.7c0-2.8,0.7-5.4,2.2-7.7c1.5-2.3,3.2-3.7,5.3-4l50.4-9.2
		c2.2-0.4,4.1,0.3,5.7,2.2c1.6,1.9,2.4,4.2,2.4,7.2v65.4l38.8-5.2c2.3-0.3,4.3,0.5,6,2.5c1.7,2,2.5,4.5,2.5,7.5v50
		c0,3-0.9,5.7-2.5,8.1c-1.7,2.4-3.7,3.6-6,3.8l-38.8,3.5v44.1c0,13.4,4.3,19.8,13,19.4l28.3-1.4c2.3-0.1,4.3,0.9,6,3
		c1.7,2.1,2.6,4.7,2.6,7.7v54.2c0,3-0.9,5.7-2.6,7.9c-1.7,2.2-3.7,3.3-6,3.3l-35,0.1C2601.1,2609.8,2583.3,2603.3,2570.8,2590.6z"/>
	<path class="st1" d="M2693.5,2606.2c-1.8-2.2-2.6-4.9-2.6-8v-195.6c0-3.1,0.9-5.8,2.6-8.3c1.8-2.5,3.9-3.9,6.3-4.2l60.3-8.1
		c2.6-0.4,4.9,0.5,6.8,2.6c1.9,2.1,2.9,4.7,2.9,8v15.4c8-9.5,16.9-17.3,26.8-23.5c10-6.2,20.5-10.1,31.5-11.6l18.7-2.5
		c2.9-0.4,5.4,0.5,7.5,2.7c2.1,2.2,3.2,5,3.2,8.4v72.1c0,3.4-1.1,6.4-3.2,9c-2.1,2.6-4.6,4.1-7.5,4.3l-49.4,4
		c-14.8,1.2-22.1,10.6-22.1,28.3v98.4c0,3.2-1,6-2.9,8.4c-1.9,2.4-4.2,3.5-6.9,3.5l-65.7,0.2
		C2697.4,2609.5,2695.3,2608.4,2693.5,2606.2z"/>
	<path class="st1" d="M2875.1,2509.7c-0.3-4.6-0.4-11.9-0.4-21.9c0-9.9,0.1-17.3,0.4-22c1.9-34.1,13.2-61.2,34.4-81.7
		c21.6-20.9,51.9-34.2,91.6-39.7c41.4-5.7,75.3-0.5,101,16c26.3,16.9,41,44.9,43.5,83.5c0.7,10.7,1.1,19,1.1,25.1
		c0,6.1-0.4,14.5-1.1,25.2c-5.3,79.7-55.6,119.4-144.5,119.4C2919.5,2613.7,2879.2,2579,2875.1,2509.7z M3017.4,2526
		c2.5-5,4.1-14,4.7-27.2c0.3-3.4,0.5-10.4,0.5-21.2c0-10.8-0.2-17.8-0.5-21.1c-0.9-12.7-2.7-21.4-5.2-26.2c-2.5-4.8-7.8-6.8-15.9-6
		c-8,0.8-13.2,3.8-15.7,8.9c-2.4,5.2-4.1,14-5,26.6l-0.5,20.8l0.5,20.7c0.6,12.8,2.1,21.5,4.6,26.2c2.4,4.7,7.8,6.9,16.1,6.5
		C3009.4,2533.6,3014.9,2531,3017.4,2526z"/>
</g>
<g>
	<path class="st1" d="M3243.4,2586c-28.9-17.9-44.4-44.6-44.4-78.9v-153.7c0-2.8,1.4-4.6,4.3-5.5c2.8-0.9,6.2-0.6,10,1l88.3,34.8
		c2.8,1.1,5.3,2.9,7.3,5.4c2,2.5,3,4.8,3,7.1V2523c0,7.9,2.3,14.2,6.9,18.8c4.5,4.5,11.1,7.3,19.7,8.2c8.3,0.9,14.4-0.3,18.3-3.6
		c3.9-3.2,5.8-8.4,5.8-15.7v-115.4c0-2.1,0.8-3.6,2.5-4.4c1.6-0.9,3.6-0.9,5.8,0l53,20.9c1.8,0.7,3.3,2,4.6,3.8
		c1.3,1.8,1.9,3.6,1.9,5.4v101.2c0,22.6-6.9,39.1-21.4,50c-15.5,11.6-38.2,17.8-70.1,17.8C3302.5,2610.1,3269.9,2602.4,3243.4,2586z
		"/>
	<path class="st1" d="M3455.4,2605.9c-1.1-1.3-1.7-2.8-1.7-4.5v-151.5c0-1.7,0.6-3,1.7-3.8c1.1-0.8,2.4-0.9,3.9-0.3l38.2,15
		c1.2,0.5,2.3,1.5,3.2,2.9c0.9,1.5,1.3,2.9,1.3,4.5v134.2c0,1.5-0.4,2.8-1.3,3.9c-0.9,1.1-2,1.7-3.2,1.7l-38.2-0.2
		C3457.8,2607.8,3456.5,2607.1,3455.4,2605.9z"/>
</g>
<polygon points="5926.2,2659.8 4536.4,2659.8 4536.8,2355.8 5542,2279.5 5926.2,2433.4 "/>
<g>
	<path class="st1" d="M4583.6,2622.3c-0.9-1.6-1.3-3.5-1.3-5.7v-193.8c0-2.2,0.4-4.2,1.3-5.9c0.9-1.8,2-2.8,3.2-3l27.4-4.9
		c3.3-0.6,5.9,1.7,7.7,7l26.6,71.4l27.8-80.9c2-6.2,4.8-9.6,8.5-10.3l32.1-5.8c1.5-0.3,2.9,0.4,4,2c1.1,1.6,1.7,3.6,1.7,6.1v216.9
		c0,2.5-0.6,4.6-1.7,6.4c-1.1,1.8-2.4,2.7-4,2.7l-36.7,0.1c-1.4,0-2.7-0.9-3.7-2.6c-1-1.7-1.6-3.8-1.6-6.1v-88.7l-12.8,35.6
		c-0.9,2.4-1.9,4.4-3,5.9c-1.1,1.5-2.4,2.3-4.1,2.4l-13.1,0.6c-1.6,0.1-2.9-0.6-4-2c-1-1.4-2-3.2-2.8-5.5l-12-32.9v85
		c0,2.3-0.5,4.2-1.4,5.9c-1,1.7-2.1,2.5-3.4,2.5l-31.5,0.1C4585.6,2624.7,4584.5,2623.9,4583.6,2622.3z"/>
	<path class="st1" d="M4756.6,2604.8c-11-15-16.4-37.8-16.4-68.6v-2.4c0.3-28.8,6-51.6,17.2-68.6c11.4-17.2,27.1-27.3,47.4-30.1
		c15-2.1,28,0.6,38.7,8.1c10.9,7.6,19,18.7,24.3,33.4c5.4,14.8,8.1,31.7,8.1,50.7v11.2c0,2.8-0.7,5.2-2.1,7.2c-1.4,2.1-3,3.2-5,3.3
		l-73.5,3.9v1.8c0,7.3,0.7,12.7,2.1,16.2c1.4,3.5,3.8,5.2,7.1,5.1c1.3,0,2.3-0.5,3.1-1.4c0.8-0.9,2.1-2.6,3.8-5.3
		c1.4-2.2,2.6-3.6,3.6-4.3c1-0.6,2.4-1,4.4-1.1l47.3-2.1c1.6-0.1,2.9,0.6,4,1.9c1.1,1.3,1.7,3.1,1.7,5.3c0,7-2.7,15.2-8,24.7
		c-5.3,9.4-13.2,17.4-23.5,24.1c-10.2,6.6-22.2,9.9-35.9,9.9C4783.8,2627.7,4767.7,2620,4756.6,2604.8z M4814.3,2507.1v-0.4
		c0-15.1-3.2-22.3-9.6-21.6c-6.3,0.6-9.4,8.4-9.4,23.3v0.4L4814.3,2507.1z"/>
	<path class="st1" d="M4932.4,2604.6c-12.3-12.6-18.4-33.6-18.4-63.3v-50l-21.5,1.9c-2,0.2-3.7-0.7-5.1-2.6c-1.4-1.9-2.1-4.2-2.1-7
		V2438c0-2.8,0.7-5.2,2.1-7.4c1.4-2.2,3.1-3.4,5.1-3.7l21.5-2.9v-62.7c0-2.8,0.7-5.4,2.2-7.7c1.5-2.3,3.2-3.7,5.3-4l50.4-9.2
		c2.2-0.4,4.1,0.3,5.7,2.2c1.6,1.9,2.4,4.2,2.4,7.2v65.4l38.8-5.2c2.3-0.3,4.3,0.5,6,2.5c1.7,2,2.5,4.5,2.5,7.5v50
		c0,3-0.9,5.7-2.5,8.1c-1.7,2.4-3.7,3.6-6,3.8l-38.8,3.5v44.1c0,13.4,4.3,19.8,13,19.4l28.3-1.4c2.3-0.1,4.3,0.9,6,3
		c1.7,2.1,2.6,4.7,2.6,7.7v54.2c0,3-0.9,5.7-2.6,7.9c-1.7,2.2-3.7,3.3-6,3.3l-35,0.1C4962.8,2623.8,4945,2617.3,4932.4,2604.6z"/>
	<path class="st1" d="M5055.2,2620.2c-1.8-2.2-2.6-4.9-2.6-8v-195.6c0-3.1,0.9-5.8,2.6-8.3c1.8-2.5,3.9-3.9,6.3-4.2l60.3-8.1
		c2.6-0.4,4.9,0.5,6.8,2.6c1.9,2.1,2.9,4.7,2.9,8v15.4c8-9.5,16.9-17.3,26.8-23.5c10-6.2,20.5-10.1,31.5-11.6l18.7-2.5
		c2.9-0.4,5.4,0.5,7.5,2.7c2.1,2.2,3.2,5,3.2,8.4v72.1c0,3.4-1.1,6.4-3.2,9c-2.1,2.6-4.6,4.1-7.5,4.3l-49.4,4
		c-14.8,1.2-22.1,10.6-22.1,28.3v98.4c0,3.2-1,6-2.9,8.4c-1.9,2.4-4.2,3.5-6.9,3.5l-65.7,0.2
		C5059,2623.5,5056.9,2622.4,5055.2,2620.2z"/>
	<path class="st1" d="M5236.8,2523.7c-0.3-4.6-0.4-11.9-0.4-21.9c0-9.9,0.1-17.3,0.4-22c1.9-34.1,13.2-61.2,34.4-81.7
		c21.6-20.9,51.9-34.2,91.6-39.7c41.4-5.7,75.3-0.5,101,16c26.3,16.9,41,44.9,43.5,83.5c0.7,10.7,1.1,19,1.1,25.1
		c0,6.1-0.4,14.5-1.1,25.2c-5.3,79.7-55.6,119.4-144.5,119.4C5281.2,2627.7,5240.9,2593,5236.8,2523.7z M5379.1,2540
		c2.5-5,4.1-14,4.7-27.2c0.3-3.4,0.5-10.4,0.5-21.2c0-10.8-0.2-17.8-0.5-21.1c-0.9-12.7-2.7-21.4-5.2-26.2c-2.5-4.8-7.8-6.8-15.9-6
		c-8,0.8-13.2,3.8-15.7,8.9c-2.4,5.2-4.1,14-5,26.6l-0.5,20.8l0.5,20.7c0.6,12.8,2.1,21.5,4.6,26.2c2.4,4.7,7.8,6.9,16.1,6.5
		C5371.1,2547.6,5376.6,2545,5379.1,2540z"/>
</g>
<g>
	<path class="st1" d="M5605.1,2600c-28.9-17.9-44.4-44.6-44.4-78.9v-153.7c0-2.8,1.4-4.6,4.3-5.5c2.8-0.9,6.2-0.6,10,1l88.3,34.8
		c2.8,1.1,5.3,2.9,7.3,5.4c2,2.5,3,4.8,3,7.1V2537c0,7.9,2.3,14.2,6.9,18.8c4.5,4.5,11.1,7.3,19.7,8.2c8.3,0.9,14.4-0.3,18.3-3.6
		c3.9-3.2,5.8-8.4,5.8-15.7v-115.4c0-2.1,0.8-3.6,2.5-4.4c1.6-0.9,3.6-0.9,5.8,0l53,20.9c1.8,0.7,3.3,2,4.6,3.8
		c1.3,1.8,1.9,3.6,1.9,5.4v101.2c0,22.6-6.9,39.1-21.4,50c-15.5,11.6-38.2,17.8-70.1,17.8C5664.1,2624.1,5631.6,2616.4,5605.1,2600z
		"/>
	<path class="st1" d="M5817.1,2619.9c-1.1-1.3-1.7-2.8-1.7-4.5v-151.5c0-1.7,0.6-3,1.7-3.8c1.1-0.8,2.4-0.9,3.9-0.3l38.2,15
		c1.2,0.5,2.3,1.5,3.2,2.9c0.9,1.5,1.3,2.9,1.3,4.5v134.2c0,1.5-0.4,2.8-1.3,3.9c-0.9,1.1-2,1.7-3.2,1.7l-38.2-0.2
		C5819.5,2621.8,5818.2,2621.1,5817.1,2619.9z"/>
</g>
<rect x="1997.9" y="2197.4" transform="matrix(0.9834 -0.1814 0.1814 0.9834 -352.6729 588.4799)" class="st2" width="2084.6" height="49.1"/>
<rect x="2004.5" y="2611" class="st2" width="2084.6" height="49.1"/>
<rect x="1977.6" y="2486" transform="matrix(6.123234e-17 -1 1 6.123234e-17 -317.0657 4703.9453)" class="st2" width="431.7" height="49.1"/>
<rect x="2847.6" y="2378.1" transform="matrix(6.123234e-17 -1 1 6.123234e-17 768.7365 5574.0112)" class="st2" width="647.5" height="49.1"/>
<rect x="3316.3" y="2486" transform="matrix(6.123234e-17 -1 1 6.123234e-17 1021.6596 6042.6704)" class="st2" width="431.7" height="49.1"/>
<polygon points="3195.9,3435.2 2011.3,3435.2 2011.3,2994.7 3195.9,3121.3 "/>
<g>
	<path class="st1" d="M594.6,3231.8c-1.6-1.6-2.4-3.5-2.4-5.7v-193.8c0-2.2,0.8-4.1,2.4-5.7c1.6-1.6,3.5-2.4,5.7-2.4h47.4
		c5.6,0,9.9,2.7,12.9,8.1l43.5,72l43.5-72c3-5.4,7.3-8.1,12.9-8.1h47.4c2.2,0,4.1,0.8,5.7,2.4c1.6,1.6,2.4,3.5,2.4,5.7v193.8
		c0,2.2-0.8,4.1-2.4,5.7c-1.6,1.6-3.5,2.4-5.7,2.4h-54.3c-2.2,0-4.1-0.8-5.7-2.4c-1.6-1.6-2.4-3.5-2.4-5.7v-82.2l-19.8,32.4
		c-1.4,2.2-3,4-4.6,5.4c-1.7,1.4-3.9,2.1-6.5,2.1h-21c-2.6,0-4.8-0.7-6.4-2.1c-1.7-1.4-3.3-3.2-4.7-5.4l-19.8-32.4v82.2
		c0,2.2-0.8,4.1-2.4,5.7c-1.6,1.6-3.5,2.4-5.7,2.4h-54.3C598.1,3234.2,596.2,3233.4,594.6,3231.8z"/>
	<path class="st1" d="M863.4,3217.2c-15-13.3-22.5-33.5-22.5-60.8v-2.1c0.4-25.4,8.2-44.9,23.6-58.7c15.3-13.7,35.9-20.5,62-20.5
		c18.8,0,34.6,3.7,47.5,11c12.9,7.3,22.4,17.1,28.7,29.4c6.2,12.3,9.3,26.1,9.3,41.2v9c0,2.2-0.8,4.1-2.4,5.7
		c-1.6,1.6-3.5,2.4-5.7,2.4h-89.4v1.5c0,6.2,0.9,10.8,2.7,13.8s4.8,4.5,9,4.5c1.6,0,2.9-0.3,3.9-1c1-0.7,2.6-2.1,4.8-4.4
		c1.8-1.8,3.3-2.9,4.5-3.4c1.2-0.5,3-0.8,5.4-0.8h56.7c1.8,0,3.3,0.6,4.6,1.6c1.3,1.1,2,2.5,2,4.4c0,5.6-3.1,12.1-9.3,19.6
		c-6.2,7.5-15.4,14-27.8,19.4c-12.3,5.4-27.1,8.1-44.2,8.1C899.5,3237.2,878.4,3230.6,863.4,3217.2z M938.4,3136.4v-0.3
		c0-12.6-4-18.9-12-18.9c-8,0-12,6.3-12,18.9v0.3H938.4z"/>
	<path class="st1" d="M1074.3,3219.3c-13.2-9.9-19.8-26.4-19.8-49.7v-39h-23.7c-2.2,0-4.1-0.8-5.7-2.4c-1.6-1.6-2.4-3.5-2.4-5.7
		v-36.3c0-2.2,0.8-4.1,2.4-5.7c1.6-1.6,3.5-2.4,5.7-2.4h23.7v-48.9c0-2.2,0.8-4.1,2.4-5.7c1.6-1.6,3.5-2.4,5.7-2.4h52.5
		c2.2,0,4.1,0.8,5.7,2.4c1.6,1.6,2.4,3.5,2.4,5.7v48.9h37.8c2.2,0,4.1,0.8,5.7,2.4c1.6,1.6,2.4,3.5,2.4,5.7v36.3
		c0,2.2-0.8,4.1-2.4,5.7c-1.6,1.6-3.5,2.4-5.7,2.4h-37.8v33c0,10,4.3,15,12.9,15h27.3c2.2,0,4.1,0.8,5.7,2.4
		c1.6,1.6,2.4,3.5,2.4,5.7v39.3c0,2.2-0.8,4.1-2.4,5.7c-1.6,1.6-3.5,2.4-5.7,2.4h-33.9C1105.9,3234.2,1087.5,3229.2,1074.3,3219.3z"
		/>
	<path class="st1" d="M1194.9,3231.8c-1.6-1.6-2.4-3.5-2.4-5.7v-139.8c0-2.2,0.8-4.1,2.4-5.7c1.6-1.6,3.5-2.4,5.7-2.4h52.5
		c2.2,0,4.1,0.8,5.7,2.4c1.6,1.6,2.4,3.5,2.4,5.7v10.5c6.6-5.8,13.9-10.3,21.9-13.6c8-3.3,16.3-5,24.9-5h14.4c2.2,0,4.1,0.8,5.7,2.4
		c1.6,1.6,2.4,3.5,2.4,5.7v46.8c0,2.2-0.8,4.1-2.4,5.7c-1.6,1.6-3.5,2.4-5.7,2.4h-38.7c-12,0-18,6-18,18v66.9c0,2.2-0.8,4.1-2.4,5.7
		c-1.6,1.6-3.5,2.4-5.7,2.4h-57C1198.4,3234.2,1196.5,3233.4,1194.9,3231.8z"/>
	<path class="st1" d="M1343.7,3170.3c-0.2-3-0.3-7.7-0.3-14.1c0-6.4,0.1-11.1,0.3-14.1c1.4-21.8,9.7-38.4,24.9-49.8
		c15.2-11.4,35.9-17.1,62.1-17.1c26.2,0,46.9,5.7,62.1,17.1c15.2,11.4,23.5,28,24.9,49.8c0.4,6,0.6,10.7,0.6,14.1
		c0,3.4-0.2,8.1-0.6,14.1c-3,44.6-32,66.9-87,66.9C1375.7,3237.2,1346.7,3214.9,1343.7,3170.3z M1441.2,3184.8
		c1.6-2.9,2.6-8.2,3-16.1c0.2-2,0.3-6.2,0.3-12.6c0-6.4-0.1-10.6-0.3-12.6c-0.6-7.6-1.7-12.9-3.3-15.9c-1.6-3-5-4.5-10.2-4.5
		c-5.2,0-8.6,1.5-10.2,4.5c-1.6,3-2.7,8.3-3.3,15.9l-0.3,12.6l0.3,12.6c0.4,7.8,1.4,13.2,3,16.1c1.6,2.9,5.1,4.3,10.5,4.3
		C1436.1,3189.2,1439.6,3187.7,1441.2,3184.8z"/>
</g>
<rect x="2004.5" y="3122.9" class="st2" width="2084.6" height="49.1"/>
<rect x="2004.5" y="3386.4" class="st2" width="2084.6" height="49.1"/>
<rect x="1822.5" y="3261.4" transform="matrix(6.123234e-17 -1 1 6.123234e-17 -1247.5272 5324.2529)" class="st2" width="431.7" height="49.1"/>
<rect x="2955.5" y="3261.4" transform="matrix(6.123234e-17 -1 1 6.123234e-17 -114.5162 6457.2642)" class="st2" width="431.7" height="49.1"/>
<path d="M3686.1,4201.1H2187.2c-10.1,0-18.3-8.2-18.3-18.3v-277.2c0-10.1,8.2-18.3,18.3-18.3h1498.9c10.1,0,18.3,8.2,18.3,18.3
	v277.2C3704.4,4192.8,3696.2,4201.1,3686.1,4201.1z"/>
<rect x="2163.2" y="4668.9" width="1394.1" height="313.8"/>
<g>
	<path class="st1" d="M2223,4931.3c-1.6-1.6-2.4-3.5-2.4-5.7v-193.8c0-2.2,0.8-4.1,2.4-5.7c1.6-1.6,3.5-2.4,5.7-2.4h47.4
		c5.6,0,9.9,2.7,12.9,8.1l43.5,72l43.5-72c3-5.4,7.3-8.1,12.9-8.1h47.4c2.2,0,4.1,0.8,5.7,2.4c1.6,1.6,2.4,3.5,2.4,5.7v193.8
		c0,2.2-0.8,4.1-2.4,5.7c-1.6,1.6-3.5,2.4-5.7,2.4H2382c-2.2,0-4.1-0.8-5.7-2.4c-1.6-1.6-2.4-3.5-2.4-5.7v-82.2l-19.8,32.4
		c-1.4,2.2-3,4-4.6,5.4c-1.7,1.4-3.9,2.1-6.5,2.1h-21c-2.6,0-4.8-0.7-6.4-2.1c-1.7-1.4-3.3-3.2-4.7-5.4l-19.8-32.4v82.2
		c0,2.2-0.8,4.1-2.4,5.7c-1.6,1.6-3.5,2.4-5.7,2.4h-54.3C2226.5,4933.7,2224.6,4932.9,2223,4931.3z"/>
	<path class="st1" d="M2491.8,4916.8c-15-13.3-22.5-33.5-22.5-60.8v-2.1c0.4-25.4,8.2-44.9,23.6-58.7c15.3-13.7,35.9-20.5,62-20.5
		c18.8,0,34.6,3.7,47.5,11c12.9,7.3,22.4,17.1,28.7,29.4c6.2,12.3,9.3,26.1,9.3,41.2v9c0,2.2-0.8,4.1-2.4,5.7
		c-1.6,1.6-3.5,2.4-5.7,2.4h-89.4v1.5c0,6.2,0.9,10.8,2.7,13.8s4.8,4.5,9,4.5c1.6,0,2.9-0.3,3.9-1c1-0.7,2.6-2.1,4.8-4.4
		c1.8-1.8,3.3-2.9,4.5-3.4c1.2-0.5,3-0.8,5.4-0.8h56.7c1.8,0,3.3,0.6,4.6,1.6c1.3,1.1,2,2.5,2,4.4c0,5.6-3.1,12.1-9.3,19.6
		c-6.2,7.5-15.4,14-27.8,19.4c-12.3,5.4-27.1,8.1-44.2,8.1C2527.9,4936.7,2506.8,4930.1,2491.8,4916.8z M2566.8,4835.9v-0.3
		c0-12.6-4-18.9-12-18.9c-8,0-12,6.3-12,18.9v0.3H2566.8z"/>
	<path class="st1" d="M2702.6,4918.9c-13.2-9.9-19.8-26.4-19.8-49.7v-39h-23.7c-2.2,0-4.1-0.8-5.7-2.4c-1.6-1.6-2.4-3.5-2.4-5.7
		v-36.3c0-2.2,0.8-4.1,2.4-5.7c1.6-1.6,3.5-2.4,5.7-2.4h23.7v-48.9c0-2.2,0.8-4.1,2.4-5.7c1.6-1.6,3.5-2.4,5.7-2.4h52.5
		c2.2,0,4.1,0.8,5.7,2.4c1.6,1.6,2.4,3.5,2.4,5.7v48.9h37.8c2.2,0,4.1,0.8,5.7,2.4c1.6,1.6,2.4,3.5,2.4,5.7v36.3
		c0,2.2-0.8,4.1-2.4,5.7c-1.6,1.6-3.5,2.4-5.7,2.4h-37.8v33c0,10,4.3,15,12.9,15h27.3c2.2,0,4.1,0.8,5.7,2.4
		c1.6,1.6,2.4,3.5,2.4,5.7v39.3c0,2.2-0.8,4.1-2.4,5.7c-1.6,1.6-3.5,2.4-5.7,2.4h-33.9C2734.2,4933.7,2715.8,4928.8,2702.6,4918.9z"
		/>
	<path class="st1" d="M2823.2,4931.3c-1.6-1.6-2.4-3.5-2.4-5.7v-139.8c0-2.2,0.8-4.1,2.4-5.7c1.6-1.6,3.5-2.4,5.7-2.4h52.5
		c2.2,0,4.1,0.8,5.7,2.4c1.6,1.6,2.4,3.5,2.4,5.7v10.5c6.6-5.8,13.9-10.3,21.9-13.6c8-3.3,16.3-5,24.9-5h14.4c2.2,0,4.1,0.8,5.7,2.4
		c1.6,1.6,2.4,3.5,2.4,5.7v46.8c0,2.2-0.8,4.1-2.4,5.7c-1.6,1.6-3.5,2.4-5.7,2.4H2912c-12,0-18,6-18,18v66.9c0,2.2-0.8,4.1-2.4,5.7
		c-1.6,1.6-3.5,2.4-5.7,2.4h-57C2826.7,4933.7,2824.8,4932.9,2823.2,4931.3z"/>
	<path class="st1" d="M2972,4869.8c-0.2-3-0.3-7.7-0.3-14.1c0-6.4,0.1-11.1,0.3-14.1c1.4-21.8,9.7-38.4,24.9-49.8
		c15.2-11.4,35.9-17.1,62.1-17.1c26.2,0,46.9,5.7,62.1,17.1c15.2,11.4,23.5,28,24.9,49.8c0.4,6,0.6,10.7,0.6,14.1
		c0,3.4-0.2,8.1-0.6,14.1c-3,44.6-32,66.9-87,66.9C3004,4936.7,2975,4914.4,2972,4869.8z M3069.5,4884.4c1.6-2.9,2.6-8.2,3-16.1
		c0.2-2,0.3-6.2,0.3-12.6c0-6.4-0.1-10.6-0.3-12.6c-0.6-7.6-1.7-12.9-3.3-15.9c-1.6-3-5-4.5-10.2-4.5c-5.2,0-8.6,1.5-10.2,4.5
		c-1.6,3-2.7,8.3-3.3,15.9l-0.3,12.6l0.3,12.6c0.4,7.8,1.4,13.2,3,16.1c1.6,2.9,5.1,4.3,10.5,4.3
		C3064.4,4888.7,3067.9,4887.3,3069.5,4884.4z"/>
</g>
<g>
	<path class="st1" d="M3225.3,4912.5c-17.5-13.7-26.2-34.2-26.2-61.7v-122.7c0-2.2,0.8-4.1,2.4-5.7c1.6-1.6,3.5-2.4,5.7-2.4h58.8
		c2.2,0,4.1,0.8,5.7,2.4c1.6,1.6,2.4,3.5,2.4,5.7v121.5c0,7.6,1.8,13.4,5.5,17.2c3.7,3.9,9.2,5.9,16.6,5.9c7.4,0,12.9-2,16.7-5.9
		c3.7-3.9,5.6-9.6,5.6-17.2v-121.5c0-2.2,0.8-4.1,2.4-5.7c1.6-1.6,3.5-2.4,5.7-2.4h58.8c2.2,0,4.1,0.8,5.7,2.4
		c1.6,1.6,2.4,3.5,2.4,5.7v122.7c0,27.4-8.7,48-26.1,61.7c-17.4,13.7-41,20.5-70.8,20.5C3266.5,4933.1,3242.8,4926.2,3225.3,4912.5z
		"/>
	<path class="st1" d="M3427,4927.7c-1.6-1.6-2.4-3.5-2.4-5.7v-193.8c0-2.2,0.8-4.1,2.4-5.7c1.6-1.6,3.5-2.4,5.7-2.4h61.2
		c2.2,0,4.1,0.8,5.7,2.4c1.6,1.6,2.4,3.5,2.4,5.7V4922c0,2.2-0.8,4.1-2.4,5.7c-1.6,1.6-3.5,2.4-5.7,2.4h-61.2
		C3430.5,4930.1,3428.6,4929.3,3427,4927.7z"/>
</g>
<rect x="2004.5" y="4670.5" class="st2" width="2084.6" height="49.1"/>
<rect x="2004.5" y="4934" class="st2" width="2084.6" height="49.1"/>
<rect x="1977.6" y="4809" transform="matrix(6.123234e-17 -1 1 6.123234e-17 -2640.0547 7026.9341)" class="st2" width="431.7" height="49.1"/>
<rect x="2955.5" y="4809" transform="matrix(6.123234e-17 -1 1 6.123234e-17 -1662.1206 8004.8682)" class="st2" width="431.7" height="49.1"/>
<rect x="3316.3" y="4809" transform="matrix(6.123234e-17 -1 1 6.123234e-17 -1301.3295 8365.6592)" class="st2" width="431.7" height="49.1"/>
<rect x="2206.9" y="2311.7" transform="matrix(-0.9287 -0.3708 0.3708 -0.9287 5400.6035 5710.6353)" class="st2" width="2084.6" height="49.1"/>
<g>
	<path class="st1" d="M2071.2,3377.1c-2.5-2.5-3.8-5.5-3.8-9v-304.3c0-3.5,1.3-6.3,3.8-8.5c2.5-2.2,5.5-3.1,8.9-2.8l72,8.2
		c8.3,0.9,14.6,5.8,19,14.4l62.2,113.5l59.5-100.2c4-7.4,9.7-10.6,17.2-9.8l61.3,7c2.8,0.3,5.2,1.7,7.2,4.2c2,2.5,3,5.2,3,8.3V3370
		c0,3.1-1,5.8-3,8c-2,2.2-4.4,3.4-7.2,3.4l-70.4-0.1c-2.9,0-5.5-1.2-7.6-3.5c-2.1-2.3-3.2-5.1-3.2-8.3v-119.3l-26.8,46.2
		c-1.9,3.2-4,5.7-6.4,7.7c-2.3,2-5.3,2.9-8.9,2.8l-29.4-0.8c-3.7-0.1-6.7-1.2-9.1-3.4c-2.4-2.2-4.6-4.9-6.6-8.3l-28.6-50v124.4
		c0,3.3-1.2,6.2-3.5,8.6c-2.3,2.4-5.1,3.6-8.4,3.6l-82.2-0.1C2076.7,3380.9,2073.7,3379.7,2071.2,3377.1z"/>
	<path class="st1" d="M2425.1,3378.2c-1.9-2.2-2.9-4.8-2.9-7.9v-267.7c0-3,1-5.6,2.9-7.5c1.9-2,4.2-2.8,6.9-2.5l173.1,19.7
		c2.3,0.3,4.3,1.5,6,3.8c1.7,2.2,2.5,4.8,2.5,7.6v54.1c0,2.8-0.8,5.2-2.5,7.1c-1.7,1.9-3.7,2.8-6,2.6l-98.3-8.1v25.3l91.4,6.6
		c2.3,0.2,4.3,1.3,6,3.5c1.7,2.2,2.5,4.7,2.5,7.5v50c0,2.8-0.8,5.2-2.5,7.2c-1.7,2-3.7,2.9-6,2.8l-91.4-3.9v25.3l100.8,3.3
		c2.3,0.1,4.3,1.2,6,3.3c1.7,2.1,2.5,4.6,2.5,7.4v54.1c0,2.8-0.8,5.2-2.5,7.3c-1.7,2-3.7,3.1-6,3.1l-175.6-0.3
		C2429.3,3381.5,2427,3380.4,2425.1,3378.2z"/>
	<path class="st1" d="M2693.1,3378.9c-1.6-2-2.3-4.3-2.3-7.1v-170.1l-49.7-3.9c-2.2-0.2-4.2-1.3-5.8-3.5c-1.6-2.2-2.5-4.6-2.5-7.4
		v-61.3c0-2.8,0.8-5.1,2.5-7c1.6-1.8,3.6-2.6,5.8-2.4l166.5,18.9c1.9,0.2,3.6,1.3,5,3.4c1.4,2,2.1,4.3,2.1,6.9v56.6
		c0,2.6-0.7,4.8-2.1,6.5c-1.4,1.8-3.1,2.6-5,2.4l-44.7-3.5v164.8c0,2.6-0.7,4.9-2.2,6.8c-1.5,1.9-3.2,2.9-5.2,2.9l-56.8-0.1
		C2696.5,3381.9,2694.6,3380.9,2693.1,3378.9z"/>
	<path class="st1" d="M2835.5,3379.3c-1.4-1.9-2.1-4.1-2.1-6.6v-225.2c0-2.6,0.7-4.7,2.1-6.4c1.4-1.7,3-2.4,4.9-2.2l73.3,8.3
		c22.7,2.6,40.1,11.6,52.5,27.1c12.2,15.3,18.3,35.1,18.3,59.8c0,14.1-2.2,26.3-6.5,36.8c-4.4,10.5-10.3,19.1-17.9,25.8l27.8,75.1
		c0.4,1.3,0.7,2.5,0.7,3.6c0,1.9-0.5,3.6-1.4,5c-1,1.4-2.1,2.1-3.5,2.1l-46.9-0.1c-2.8,0-5-0.9-6.7-2.8c-1.7-1.9-2.8-4-3.4-6.2
		l-20.5-64.5l-9.9-0.4v64.7c0,2.5-0.7,4.6-1.9,6.4c-1.3,1.8-2.9,2.7-4.6,2.7l-49.1-0.1C2838.5,3382.1,2836.8,3381.2,2835.5,3379.3z
		 M2913.7,3245.2c3.5,0.2,6.2-1.2,8.1-4.3c1.9-3.1,2.8-7.1,2.8-12c0-4.9-0.9-9.3-2.7-13.1c-1.8-3.8-4.6-5.9-8.2-6.2l-17.6-1.5v35.9
		L2913.7,3245.2z"/>
	<path class="st1" d="M3020.9,3363.6c-12.9-14.9-19.8-36.6-20.7-64.9c-0.1-5.8-0.2-15.1-0.2-28c0-13.1,0.1-22.6,0.2-28.6
		c0.4-18.4,3.8-34,10-46.7c6.2-12.6,14.5-21.7,25.1-27.4c10.4-5.6,22.4-7.5,35.9-6c13.3,1.5,24.8,6.1,34.6,13.7
		c9.7,7.5,17.3,17.8,22.7,30.8c5.4,12.9,8.4,28,8.7,45.2c0.3,11.2,0.4,20.1,0.4,26.7c0,6.6-0.1,15.3-0.4,26.1
		c-0.8,26.4-6.8,46.4-18.3,60.1c-11.6,13.9-27.5,20.9-47.7,20.9C3050.4,3385.6,3033.6,3378.3,3020.9,3363.6z M3082,3319.2
		c2.6-4,4-10.2,4.1-18.7c0.3-11.9,0.4-20.6,0.4-26.2c0-6-0.1-14.5-0.4-25.6c-0.1-8.4-1.5-14.8-4.2-19.1c-2.7-4.3-6.3-6.7-10.8-7.1
		c-4.5-0.4-8.2,1.4-10.9,5.3c-2.8,4-4.2,10.2-4.4,18.7c-0.1,5.6-0.2,14.3-0.2,26c0,11.7,0.1,20.6,0.2,26.6c0.1,8.6,1.6,15,4.3,19.2
		c2.7,4.3,6.4,6.4,11,6.6C3075.7,3325.2,3079.3,3323.2,3082,3319.2z"/>
</g>
<path d="M5688.2,3435.2H4503.6v-377.7c0-33.5,29.1-59.7,62.4-56.1l1079.2,115.3c24.4,2.6,43,23.2,43,47.8V3435.2z"/>
<g>
	<path class="st1" d="M4563.5,3377.1c-2.5-2.5-3.8-5.5-3.8-9v-304.3c0-3.5,1.3-6.3,3.8-8.5c2.5-2.2,5.5-3.1,8.9-2.8l72,8.2
		c8.3,0.9,14.6,5.8,19,14.4l62.2,113.5l59.5-100.2c4-7.4,9.7-10.6,17.2-9.8l61.3,7c2.8,0.3,5.2,1.7,7.2,4.2c2,2.5,3,5.2,3,8.3V3370
		c0,3.1-1,5.8-3,8c-2,2.2-4.4,3.4-7.2,3.4l-70.4-0.1c-2.9,0-5.5-1.2-7.6-3.5c-2.1-2.3-3.2-5.1-3.2-8.3v-119.3l-26.8,46.2
		c-1.9,3.2-4,5.7-6.4,7.7c-2.3,2-5.3,2.9-8.9,2.8l-29.4-0.8c-3.7-0.1-6.7-1.2-9.1-3.4c-2.4-2.2-4.6-4.9-6.6-8.3l-28.6-50v124.4
		c0,3.3-1.2,6.2-3.5,8.6c-2.3,2.4-5.1,3.6-8.4,3.6l-82.2-0.1C4569,3380.9,4566,3379.7,4563.5,3377.1z"/>
	<path class="st1" d="M4917.4,3378.2c-1.9-2.2-2.9-4.8-2.9-7.9v-267.7c0-3,1-5.6,2.9-7.5c1.9-2,4.2-2.8,6.9-2.5l173.1,19.7
		c2.3,0.3,4.3,1.5,6,3.8c1.7,2.2,2.5,4.8,2.5,7.6v54.1c0,2.8-0.8,5.2-2.5,7.1c-1.7,1.9-3.7,2.8-6,2.6l-98.3-8.1v25.3l91.4,6.6
		c2.3,0.2,4.3,1.3,6,3.5c1.7,2.2,2.5,4.7,2.5,7.5v50c0,2.8-0.8,5.2-2.5,7.2c-1.7,2-3.7,2.9-6,2.8l-91.4-3.9v25.3l100.8,3.3
		c2.3,0.1,4.3,1.2,6,3.3c1.7,2.1,2.5,4.6,2.5,7.4v54.1c0,2.8-0.8,5.2-2.5,7.3c-1.7,2-3.7,3.1-6,3.1l-175.6-0.3
		C4921.6,3381.5,4919.3,3380.4,4917.4,3378.2z"/>
	<path class="st1" d="M5185.4,3378.9c-1.6-2-2.3-4.3-2.3-7.1v-170.1l-49.7-3.9c-2.2-0.2-4.2-1.3-5.8-3.5c-1.6-2.2-2.5-4.6-2.5-7.4
		v-61.3c0-2.8,0.8-5.1,2.5-7c1.6-1.8,3.6-2.6,5.8-2.4l166.5,18.9c1.9,0.2,3.6,1.3,5,3.4c1.4,2,2.1,4.3,2.1,6.9v56.6
		c0,2.6-0.7,4.8-2.1,6.5c-1.4,1.8-3.1,2.6-5,2.4l-44.7-3.5v164.8c0,2.6-0.7,4.9-2.2,6.8c-1.5,1.9-3.2,2.9-5.2,2.9l-56.8-0.1
		C5188.8,3381.9,5186.9,3380.9,5185.4,3378.9z"/>
	<path class="st1" d="M5327.8,3379.3c-1.4-1.9-2.1-4.1-2.1-6.6v-225.2c0-2.6,0.7-4.7,2.1-6.4c1.4-1.7,3-2.4,4.9-2.2l73.3,8.3
		c22.7,2.6,40.1,11.6,52.5,27.1c12.2,15.3,18.3,35.1,18.3,59.8c0,14.1-2.2,26.3-6.5,36.8c-4.4,10.5-10.3,19.1-17.9,25.8l27.8,75.1
		c0.4,1.3,0.7,2.5,0.7,3.6c0,1.9-0.5,3.6-1.4,5c-1,1.4-2.1,2.1-3.5,2.1l-46.9-0.1c-2.8,0-5-0.9-6.7-2.8c-1.7-1.9-2.8-4-3.4-6.2
		l-20.5-64.5l-9.9-0.4v64.7c0,2.5-0.7,4.6-1.9,6.4c-1.3,1.8-2.9,2.7-4.6,2.7l-49.1-0.1C5330.8,3382.1,5329.1,3381.2,5327.8,3379.3z
		 M5406,3245.2c3.5,0.2,6.2-1.2,8.1-4.3c1.9-3.1,2.8-7.1,2.8-12c0-4.9-0.9-9.3-2.7-13.1c-1.8-3.8-4.6-5.9-8.2-6.2l-17.6-1.5v35.9
		L5406,3245.2z"/>
	<path class="st1" d="M5513.2,3363.6c-12.9-14.9-19.8-36.6-20.7-64.9c-0.1-5.8-0.2-15.1-0.2-28c0-13.1,0.1-22.6,0.2-28.6
		c0.4-18.4,3.8-34,10-46.7c6.2-12.6,14.5-21.7,25.1-27.4c10.4-5.6,22.4-7.5,35.9-6c13.3,1.5,24.8,6.1,34.6,13.7
		c9.7,7.5,17.3,17.8,22.7,30.8c5.4,12.9,8.4,28,8.7,45.2c0.3,11.2,0.4,20.1,0.4,26.7c0,6.6-0.1,15.3-0.4,26.1
		c-0.8,26.4-6.8,46.4-18.3,60.1c-11.6,13.9-27.5,20.9-47.7,20.9C5542.7,3385.6,5525.9,3378.3,5513.2,3363.6z M5574.3,3319.2
		c2.6-4,4-10.2,4.1-18.7c0.3-11.9,0.4-20.6,0.4-26.2c0-6-0.1-14.5-0.4-25.6c-0.1-8.4-1.5-14.8-4.2-19.1c-2.7-4.3-6.3-6.7-10.8-7.1
		c-4.5-0.4-8.2,1.4-10.9,5.3c-2.8,4-4.2,10.2-4.4,18.7c-0.1,5.6-0.2,14.3-0.2,26c0,11.7,0.1,20.6,0.2,26.6c0.1,8.6,1.6,15,4.3,19.2
		c2.7,4.3,6.4,6.4,11,6.6C5568,3325.2,5571.6,3323.2,5574.3,3319.2z"/>
</g>
<path class="st1" d="M699.3,3733.5H-357.8c-3.6,0-6.5-2.9-6.5-6.5v-38.9c0-3.6,2.9-6.5,6.5-6.5H699.3c3.6,0,6.5,2.9,6.5,6.5v38.9
	C705.8,3730.5,702.9,3733.5,699.3,3733.5z"/>
<path class="st1" d="M698.4,4096.9H-358.8c-3.6,0-6.4-2.9-6.4-6.4v-39c0-3.6,2.9-6.4,6.4-6.4H698.4c3.6,0,6.4,2.9,6.4,6.4v39
	C704.8,4094,701.9,4096.9,698.4,4096.9z"/>
<path class="st1" d="M-955.1,3746h-1434.6c-3.6,0-6.5-2.9-6.5-6.5v-12c0-3.6,2.9-6.5,6.5-6.5h1434.6c3.6,0,6.5,2.9,6.5,6.5v12
	C-948.6,3743.1-951.5,3746-955.1,3746z"/>
<path class="st1" d="M-955,4058.5h-1434.6c-3.6,0-6.4-2.9-6.4-6.4v-12.1c0-3.6,2.9-6.4,6.4-6.4H-955c3.6,0,6.4,2.9,6.4,6.4v12.1
	C-948.6,4055.6-951.5,4058.5-955,4058.5z"/>
<path class="st1" d="M-981.2,4253.3h-1057.1c-3.6,0-6.5-2.9-6.5-6.5V4208c0-3.6,2.9-6.5,6.5-6.5h1057.1c3.6,0,6.5,2.9,6.5,6.5v38.9
	C-974.8,4250.4-977.7,4253.3-981.2,4253.3z"/>
<path class="st1" d="M-982.2,4616.7h-1057.2c-3.6,0-6.4-2.9-6.4-6.4v-39c0-3.6,2.9-6.4,6.4-6.4h1057.2c3.6,0,6.4,2.9,6.4,6.4v39
	C-975.7,4613.9-978.6,4616.7-982.2,4616.7z"/>
<path class="st3" d="M-1052.7,4407.6c0-5.8-0.2-14.1-0.6-24.9c-0.2-8.2-2.3-14.3-6.3-18.3c-4-4-9.3-6-15.9-6c-6.6,0-11.9,2-15.9,6
	c-4,4-6.1,10.1-6.3,18.3c-0.2,5.4-0.3,13.7-0.3,24.9c0,11.2,0.1,19.7,0.3,25.5c0.1,4.4,0.8,8.2,1.9,11.3h40.5
	c1.2-3.2,1.8-7,1.9-11.3C-1052.9,4421.5-1052.7,4413-1052.7,4407.6z"/>
<path class="st3" d="M-1288.8,4358.7h-21.9v31.8h21.9c4.4,0,7.8-1.4,10.2-4.4c2.4-2.9,3.6-6.5,3.6-11c0-4.4-1.2-8.2-3.5-11.5
	C-1280.8,4360.3-1284.2,4358.7-1288.8,4358.7z"/>
<path class="st1" d="M-1845.8,4463.9v-13c0-3.6,2.9-6.4,6.4-6.4h18.3V4311c0-2.2-0.8-4.1-2.4-5.7c-1.6-1.6-3.5-2.4-5.7-2.4h-47.4
	c-5.6,0-9.9,2.7-12.9,8.1l-43.5,72l-43.5-72c-3-5.4-7.3-8.1-12.9-8.1h-47.4c-2.2,0-4.1,0.8-5.7,2.4c-1.6,1.6-2.4,3.5-2.4,5.7v193.8
	c0,2.2,0.8,4.1,2.4,5.7c1.6,1.6,3.5,2.4,5.7,2.4h54.3c2.2,0,4.1-0.8,5.7-2.4c1.6-1.6,2.4-3.5,2.4-5.7v-82.2l19.8,32.4
	c1.4,2.2,2.9,4,4.7,5.4c1.7,1.4,3.8,2.1,6.5,2.1h21c2.6,0,4.7-0.7,6.4-2.1c1.7-1.4,3.2-3.2,4.7-5.4l19.8-32.4v82.2
	c0,2.2,0.8,4.1,2.4,5.7c1.6,1.6,3.5,2.4,5.7,2.4h54.3c2.2,0,4.1-0.8,5.7-2.4c1.6-1.6,2.4-3.5,2.4-5.7v-34.4h-18.3
	C-1842.9,4470.3-1845.8,4467.4-1845.8,4463.9z"/>
<path class="st1" d="M-1788,4504.8c0,2.2,0.8,4.1,2.4,5.7c1.6,1.6,3.5,2.4,5.7,2.4h156.3c2.2,0,4.1-0.8,5.7-2.4
	c1.6-1.6,2.4-3.5,2.4-5.7v-34.4H-1788V4504.8z"/>
<path class="st1" d="M-1716,4435.5h83.4c2.2,0,4.1-0.8,5.7-2.4c1.6-1.6,2.4-3.5,2.4-5.7v-39c0-2.2-0.8-4.1-2.4-5.7
	c-1.6-1.6-3.5-2.4-5.7-2.4h-83.4v-18.9h90c2.2,0,4.1-0.8,5.7-2.4c1.6-1.6,2.4-3.5,2.4-5.7V4311c0-2.2-0.8-4.1-2.4-5.7
	c-1.6-1.6-3.5-2.4-5.7-2.4h-153.9c-2.2,0-4.1,0.8-5.7,2.4c-1.6,1.6-2.4,3.5-2.4,5.7v133.4h72V4435.5z"/>
<path class="st1" d="M-1541.4,4504.8c0,2.2,0.8,4.1,2.4,5.7c1.6,1.6,3.5,2.4,5.7,2.4h60c2.2,0,4.1-0.8,5.7-2.4
	c1.6-1.6,2.4-3.5,2.4-5.7v-34.4h-76.2V4504.8z"/>
<path class="st1" d="M-1465.2,4367.4h49.8c2.2,0,4.1-0.8,5.7-2.4c1.6-1.6,2.4-3.5,2.4-5.7V4311c0-2.2-0.8-4.1-2.4-5.7
	c-1.6-1.6-3.5-2.4-5.7-2.4h-175.8c-2.2,0-4.1,0.8-5.7,2.4c-1.6,1.6-2.4,3.5-2.4,5.7v48.3c0,2.2,0.8,4.1,2.4,5.7
	c1.6,1.6,3.5,2.4,5.7,2.4h49.8v77h76.2V4367.4z"/>
<path class="st1" d="M-1385.7,4504.8c0,2.2,0.8,4.1,2.4,5.7c1.6,1.6,3.5,2.4,5.7,2.4h58.8c2.2,0,4.1-0.8,5.7-2.4
	c1.6-1.6,2.4-3.5,2.4-5.7v-34.4h-75V4504.8z"/>
<path class="st1" d="M-1229.4,4434.6c10-6.4,17.9-14.5,23.7-24.5c5.8-9.9,8.7-21.3,8.7-34.3c0-22.8-8.1-40.7-24.3-53.5
	c-16.2-12.9-38.7-19.4-67.5-19.4h-88.8c-2.2,0-4.1,0.8-5.7,2.4c-1.6,1.6-2.4,3.5-2.4,5.7v133.4h161.6L-1229.4,4434.6z
	 M-1278.6,4386.1c-2.4,2.9-5.8,4.4-10.2,4.4h-21.9v-31.8h21.9c4.6,0,8,1.7,10.3,5c2.3,3.3,3.5,7.2,3.5,11.5
	C-1275,4379.6-1276.2,4383.2-1278.6,4386.1z"/>
<path class="st1" d="M-1272.6,4504.8c0.8,2,2.2,3.9,4.4,5.5c2.1,1.7,5,2.5,8.5,2.5h61.5c1.8,0,3.3-0.6,4.6-2
	c1.3-1.3,1.9-2.8,1.9-4.6c0-1-0.3-2.1-0.9-3.3l-17.6-32.6h-78L-1272.6,4504.8z"/>
<path class="st1" d="M-1147.2,4495.2c17.8,13.8,41.7,20.7,71.7,20.7s53.9-6.9,71.7-20.7c8.7-6.8,15.4-15.1,20.2-24.8h-183.8
	C-1162.7,4480.1-1156,4488.4-1147.2,4495.2z"/>
<path class="st1" d="M-1097.7,4433.1c-0.2-5.8-0.3-14.3-0.3-25.5c0-11.2,0.1-19.5,0.3-24.9c0.2-8.2,2.3-14.3,6.3-18.3
	c4-4,9.3-6,15.9-6c6.6,0,11.9,2,15.9,6c4,4,6.1,10.1,6.3,18.3c0.4,10.8,0.6,19.1,0.6,24.9c0,5.4-0.2,13.9-0.6,25.5
	c-0.1,4.4-0.8,8.2-1.9,11.3h79.1c0.4-3.1,0.7-6.3,0.8-9.5c0.4-10.8,0.6-19.5,0.6-26.1c0-6.6-0.2-15.5-0.6-26.7
	c-0.6-17.2-5.2-32-13.7-44.4c-8.5-12.4-20.2-21.8-34.9-28.2c-14.8-6.4-32-9.6-51.6-9.6c-19.6,0-36.8,3.2-51.6,9.6
	c-14.8,6.4-26.5,15.8-34.9,28.2c-8.5,12.4-13.1,27.2-13.7,44.4c-0.2,5.6-0.3,14.5-0.3,26.7c0,12,0.1,20.7,0.3,26.1
	c0.1,3.3,0.4,6.5,0.8,9.5h79.1C-1097,4441.2-1097.6,4437.4-1097.7,4433.1z"/>
<g>
	<path d="M391.7,4620.2h-21.9v31.8h21.9c4.4,0,7.8-1.4,10.2-4.4c2.4-2.9,3.6-6.5,3.6-11c0-4.4-1.2-8.2-3.5-11.5
		C399.7,4621.9,396.3,4620.2,391.7,4620.2z"/>
	<path d="M620.9,4625.9c-4-4-9.3-6-15.9-6c-6.6,0-11.9,2-15.9,6c-4,4-6.1,10.1-6.3,18.3c-0.2,5.4-0.3,13.7-0.3,24.9
		c0,11.2,0.1,19.7,0.3,25.5c0.2,8.2,2.2,14.3,6.2,18.3c3.9,4,9.2,6,16.1,6c6.8,0,12.1-2,16-6c3.9-4,5.9-10.1,6.2-18.3
		c0.4-11.6,0.6-20.1,0.6-25.5c0-5.8-0.2-14.1-0.6-24.9C627,4636,624.9,4629.9,620.9,4625.9z"/>
	<path d="M740.8,4409.1H-401.3c-9.3,0-16.8,7.5-16.8,16.8v489.2c0,9.3,7.5,16.8,16.8,16.8H740.8c9.3,0,16.8-7.5,16.8-16.8v-489.2
		C757.6,4416.6,750.1,4409.1,740.8,4409.1z M-364.3,4469.5c0-3.6,2.9-6.5,6.5-6.5H699.3c3.6,0,6.5,2.9,6.5,6.5v38.9
		c0,3.6-2.9,6.5-6.5,6.5H-357.8c-3.6,0-6.5-2.9-6.5-6.5V4469.5z M488,4764.5c0.6,1.2,0.9,2.3,0.9,3.3c0,1.8-0.6,3.4-1.9,4.6
		c-1.3,1.3-2.8,2-4.6,2h-61.5c-3.6,0-6.5-0.8-8.5-2.5c-2.1-1.7-3.6-3.5-4.4-5.5l-25.8-57.3h-12.3v57.3c0,2.2-0.8,4.1-2.4,5.7
		c-1.6,1.6-3.5,2.4-5.7,2.4h-58.8c-2.2,0-4.1-0.8-5.7-2.4c-1.6-1.6-2.4-3.5-2.4-5.7v-193.8c0-2.2,0.8-4.1,2.4-5.7
		c1.6-1.6,3.5-2.4,5.7-2.4h88.8c28.8,0,51.3,6.5,67.5,19.4c16.2,12.9,24.3,30.8,24.3,53.5c0,13-2.9,24.5-8.7,34.3
		c-5.8,9.9-13.7,18.1-23.7,24.5L488,4764.5z M89.3,4628.9c-2.2,0-4.1-0.8-5.7-2.4c-1.6-1.6-2.4-3.5-2.4-5.7v-48.3
		c0-2.2,0.8-4.1,2.4-5.7c1.6-1.6,3.5-2.4,5.7-2.4h175.8c2.2,0,4.1,0.8,5.7,2.4c1.6,1.6,2.4,3.5,2.4,5.7v48.3c0,2.2-0.8,4.1-2.4,5.7
		c-1.6,1.6-3.5,2.4-5.7,2.4h-49.8v137.4c0,2.2-0.8,4.1-2.4,5.7c-1.6,1.6-3.5,2.4-5.7,2.4h-60c-2.2,0-4.1-0.8-5.7-2.4
		c-1.6-1.6-2.4-3.5-2.4-5.7v-137.4H89.3z M47.9,4641.8c2.2,0,4.1,0.8,5.7,2.4c1.6,1.6,2.4,3.5,2.4,5.7v39c0,2.2-0.8,4.1-2.4,5.7
		c-1.6,1.6-3.5,2.4-5.7,2.4h-83.4v18.9h92.4c2.2,0,4.1,0.8,5.7,2.4c1.6,1.6,2.4,3.5,2.4,5.7v42.3c0,2.2-0.8,4.1-2.4,5.7
		c-1.6,1.6-3.5,2.4-5.7,2.4H-99.4c-2.2,0-4.1-0.8-5.7-2.4c-1.6-1.6-2.4-3.5-2.4-5.7v-193.8c0-2.2,0.8-4.1,2.4-5.7
		c1.6-1.6,3.5-2.4,5.7-2.4H54.5c2.2,0,4.1,0.8,5.7,2.4c1.6,1.6,2.4,3.5,2.4,5.7v42.3c0,2.2-0.8,4.1-2.4,5.7
		c-1.6,1.6-3.5,2.4-5.7,2.4h-90v18.9H47.9z M-230.8,4716.5c-1.4,2.2-3,4-4.7,5.4c-1.7,1.4-3.9,2.1-6.4,2.1h-21
		c-2.6,0-4.8-0.7-6.5-2.1c-1.7-1.4-3.3-3.2-4.7-5.4l-19.8-32.4v82.2c0,2.2-0.8,4.1-2.4,5.7c-1.6,1.6-3.5,2.4-5.7,2.4h-54.3
		c-2.2,0-4.1-0.8-5.7-2.4c-1.6-1.6-2.4-3.5-2.4-5.7v-193.8c0-2.2,0.8-4.1,2.4-5.7c1.6-1.6,3.5-2.4,5.7-2.4h47.4
		c5.6,0,9.9,2.7,12.9,8.1l43.5,72l43.5-72c3-5.4,7.3-8.1,12.9-8.1h47.4c2.2,0,4.1,0.8,5.7,2.4c1.6,1.6,2.4,3.5,2.4,5.7v193.8
		c0,2.2-0.8,4.1-2.4,5.7c-1.6,1.6-3.5,2.4-5.7,2.4h-54.3c-2.2,0-4.1-0.8-5.7-2.4c-1.6-1.6-2.4-3.5-2.4-5.7v-82.2L-230.8,4716.5z
		 M704.8,4871.9c0,3.6-2.9,6.4-6.4,6.4H-358.8c-3.6,0-6.4-2.9-6.4-6.4v-39c0-3.6,2.9-6.4,6.4-6.4H698.4c3.6,0,6.4,2.9,6.4,6.4
		V4871.9z M705.2,4696.4c-1.2,26.4-10.7,46.5-28.5,60.3c-17.8,13.8-41.7,20.7-71.7,20.7s-53.9-6.9-71.7-20.7
		c-17.8-13.8-27.3-33.9-28.5-60.3c-0.2-5.4-0.3-14.1-0.3-26.1c0-12.2,0.1-21.1,0.3-26.7c0.6-17.2,5.1-32,13.7-44.4
		c8.5-12.4,20.1-21.8,34.9-28.2c14.8-6.4,32-9.6,51.6-9.6c19.6,0,36.8,3.2,51.6,9.6c14.8,6.4,26.4,15.8,34.9,28.2
		c8.5,12.4,13.1,27.2,13.7,44.4c0.4,11.2,0.6,20.1,0.6,26.7C705.8,4676.9,705.6,4685.6,705.2,4696.4z"/>
</g>
<g>
	<path class="st4" d="M-2387.7,3996.3c-1.5-1.4-2.2-3.2-2.2-5.4v-194.7c0-2.2,0.8-4,2.2-5.5s3.3-2.2,5.5-2.2h33.9
		c5,0,8.6,2.2,10.8,6.6l51.6,92.4l51.9-92.4c2.2-4.4,5.8-6.6,10.8-6.6h33.9c2.2,0,4.1,0.8,5.6,2.2s2.2,3.4,2.2,5.5v194.7
		c0,2.2-0.8,4-2.2,5.4c-1.5,1.4-3.4,2.1-5.6,2.1h-38.1c-2,0-3.8-0.8-5.2-2.2s-2.2-3.2-2.2-5.2v-109.2l-32.4,59.4
		c-2.6,4.6-6.1,6.9-10.5,6.9h-16.2c-4,0-7.5-2.3-10.5-6.9l-32.1-59.4v109.2c0,2.2-0.8,4-2.2,5.4c-1.5,1.4-3.4,2.1-5.5,2.1h-37.8
		C-2384.4,3998.4-2386.2,3997.7-2387.7,3996.3z"/>
	<path class="st4" d="M-2138.4,3996.1c-1.5-1.5-2.2-3.2-2.2-5.2v-194.7c0-2.2,0.7-4,2.1-5.5c1.4-1.5,3.2-2.2,5.4-2.2h141.6
		c2.2,0,4,0.8,5.5,2.2s2.2,3.4,2.2,5.5v29.7c0,2.2-0.8,4-2.2,5.4c-1.5,1.4-3.4,2.1-5.5,2.1h-94.8v38.1h88.2c2.2,0,4,0.8,5.5,2.2
		s2.2,3.4,2.2,5.6v27.3c0,2.2-0.8,4-2.2,5.5s-3.4,2.2-5.5,2.2h-88.2v39h97.2c2.2,0,4,0.8,5.5,2.2s2.2,3.4,2.2,5.5v29.7
		c0,2.2-0.8,4-2.2,5.4c-1.5,1.4-3.4,2.1-5.5,2.1h-144C-2135.2,3998.4-2136.9,3997.6-2138.4,3996.1z"/>
	<path class="st4" d="M-1899.6,3996.3c-1.5-1.4-2.2-3.2-2.2-5.4v-153.6h-52.8c-2.2,0-4-0.7-5.5-2.1c-1.5-1.4-2.2-3.2-2.2-5.4v-33.6
		c0-2.2,0.8-4,2.2-5.5s3.3-2.2,5.5-2.2h162.9c2.2,0,4,0.8,5.5,2.2s2.2,3.4,2.2,5.5v33.6c0,2.2-0.8,4-2.2,5.4
		c-1.5,1.4-3.4,2.1-5.5,2.1h-52.8v153.6c0,2.2-0.8,4-2.2,5.4c-1.5,1.4-3.4,2.1-5.6,2.1h-41.7
		C-1896.3,3998.4-1898.1,3997.7-1899.6,3996.3z"/>
	<path class="st4" d="M-1755.3,3996.1c-1.5-1.5-2.2-3.2-2.2-5.2v-194.7c0-2.2,0.7-4,2.1-5.5c1.4-1.5,3.2-2.2,5.4-2.2h82.5
		c26.4,0,47,6,61.9,18c14.9,12,22.4,28.9,22.4,50.7c0,14-3.3,25.9-9.8,35.7c-6.5,9.8-15.5,17.4-26.9,22.8l40.5,73.2
		c0.6,1.2,0.9,2.3,0.9,3.3c0,1.6-0.6,3.1-1.8,4.3c-1.2,1.3-2.7,2-4.5,2h-42.3c-5.8,0-9.9-2.7-12.3-8.1l-33-65.1h-28.8v65.7
		c0,2.2-0.8,4-2.2,5.4c-1.5,1.4-3.4,2.1-5.5,2.1h-41.1C-1752.1,3998.4-1753.8,3997.6-1755.3,3996.1z M-1667.9,3881.1
		c8.6,0,15.2-2.1,19.7-6.5c4.5-4.3,6.8-10.2,6.8-17.8c0-7.6-2.2-13.7-6.8-18.3c-4.5-4.6-11.1-6.9-19.7-6.9h-33.3v49.5H-1667.9z"/>
	<path class="st4" d="M-1530.2,3980.7c-16.4-13.8-25.1-34.1-26.1-60.9c-0.2-5.6-0.3-14.2-0.3-25.8c0-11.6,0.1-20.3,0.3-26.1
		c0.8-26.4,9.5-46.7,26.2-61c16.7-14.3,39-21.5,67.1-21.5c27.8,0,50,7.2,66.8,21.5c16.7,14.3,25.4,34.6,26.2,61
		c0.4,11.6,0.6,20.3,0.6,26.1c0,6-0.2,14.6-0.6,25.8c-1,26.8-9.7,47.1-26,60.9c-16.3,13.8-38.7,20.7-67,20.7
		C-1491.4,4001.4-1513.8,3994.5-1530.2,3980.7z M-1438.1,3946.9c6.2-6.3,9.5-15.9,9.9-29c0.4-11.6,0.6-19.9,0.6-24.9
		c0-5-0.2-13.1-0.6-24.3c-0.4-13-3.7-22.7-9.9-29c-6.2-6.3-14.5-9.5-24.9-9.5c-10.6,0-19,3.2-25.2,9.5c-6.2,6.3-9.5,16-9.9,29
		c-0.2,5.6-0.3,13.7-0.3,24.3c0,10.8,0.1,19.1,0.3,24.9c0.4,13,3.7,22.7,9.9,29c6.2,6.3,14.6,9.5,25.2,9.5
		C-1452.6,3956.4-1444.3,3953.2-1438.1,3946.9z"/>
</g>
<g>
	<path class="st4" d="M-1229.4,3989.1c-10.8-9.6-16.2-23.9-16.2-42.9c0-7.6,0.7-15.2,2.1-22.8l14.1-80.4c1.2-7.6,1.8-12.2,1.8-13.8
		c0-4.4-1.2-7.6-3.5-9.6c-2.3-2-6.4-3.4-12.2-4.2c-0.6-3-0.9-6.4-0.9-10.2c0-1.8,0.2-4.5,0.6-8.1c9.6,0.6,23.7,0.9,42.3,0.9
		c18.6,0,33.3-0.3,44.1-0.9c0,6.4-1.1,12.5-3.3,18.3c-6.4,0.6-11.2,1.9-14.2,3.9c-3.1,2-5.3,5-6.6,8.8c-1.3,3.9-2.8,10.4-4.3,19.4
		l-12.9,74.4c-1.4,7.8-2.1,15.2-2.1,22.2c0,13.2,2.7,23,8.2,29.4c5.5,6.4,13.3,9.6,23.5,9.6c13.4,0,24.3-5.1,32.7-15.3
		c8.4-10.2,14.3-24.9,17.7-44.1l12.6-71.4c1.8-10.4,2.7-17,2.7-19.8c0-4.8-1.2-8.4-3.6-10.8c-2.4-2.4-6.6-4.5-12.6-6.3
		c-0.6-3-0.9-6.1-0.9-9.3c0-1.6,0.2-4.6,0.6-9c8.4,0.6,18.7,0.9,30.9,0.9c12.4,0,22.7-0.3,30.9-0.9c-0.4,6.8-1.6,12.9-3.6,18.3
		c-6.2,1.4-10.8,3.3-13.6,5.7c-2.9,2.4-5.1,6-6.6,10.8c-1.5,4.8-3.1,12.7-4.9,23.7l-11.4,65.4c-3.2,18.2-7.8,33.3-13.8,45.3
		s-14.4,21.2-25.2,27.6c-10.8,6.4-24.8,9.6-42,9.6C-1201.8,4003.5-1218.6,3998.7-1229.4,3989.1z"/>
	<path class="st4" d="M-1024.5,3830.4c0-4.6-1.3-8-3.9-10.3c-2.6-2.3-7.2-3.8-13.8-4.7c-0.6-3-0.9-6.4-0.9-10.2
		c0-1.8,0.2-4.5,0.6-8.1c8.6,0.6,23.1,0.9,43.5,0.9c19.6,0,34.4-0.3,44.4-0.9c-0.4,7-1.6,13.1-3.6,18.3c-5.6,0.8-9.8,2.1-12.5,3.8
		c-2.7,1.7-4.8,4.6-6.3,8.6c-1.5,4-3.1,10.4-4.7,19.2l-18.6,107.4c-1.2,8-1.8,13-1.8,15c0,4,1.2,7.1,3.6,9.3
		c2.4,2.2,6.8,3.8,13.2,4.8c0.8,4.8,1.2,8.4,1.2,10.8c0,1.4-0.2,3.9-0.6,7.5c-9.8-0.6-24.1-0.9-42.9-0.9c-17.8,0-32.7,0.3-44.7,0.9
		c0.6-7,2-13.1,4.2-18.3c5.6-0.8,9.7-1.9,12.3-3.4c2.6-1.5,4.6-4.1,6.1-7.7s2.9-9.4,4.4-17.4l19.2-111.3
		C-1025,3837.6-1024.5,3833.2-1024.5,3830.4z"/>
</g>
<g>
	<path class="st5" d="M858.5,244H9.2c-0.5,0-0.8-0.4-0.8-0.8v-14.9c0-0.5,0.4-0.8,0.8-0.8h849.3c0.5,0,0.8,0.4,0.8,0.8v14.9
		C859.4,243.6,859,244,858.5,244z"/>
	<path class="st5" d="M858.5,23.4H9.2c-0.5,0-0.8-0.4-0.8-0.8V7.6c0-0.5,0.4-0.8,0.8-0.8h849.3c0.5,0,0.8,0.4,0.8,0.8v14.9
		C859.4,23,859,23.4,858.5,23.4z"/>
</g>
<g>
	<g>
		<path d="M52.1,193c-0.9-0.9-1.4-2-1.4-3.3V63.4c0-1.4,0.4-2.6,1.3-3.5c0.8-0.9,2-1.4,3.4-1.4h15.7c2.5,0,4.4,1.2,5.8,3.7
			l37.4,69.5l37.4-69.5c1.4-2.5,3.4-3.7,5.8-3.7h15.5c1.4,0,2.6,0.5,3.5,1.4c0.9,0.9,1.4,2.1,1.4,3.5v126.3c0,1.4-0.5,2.6-1.4,3.4
			c-0.9,0.8-2.1,1.3-3.5,1.3h-16.7c-1.3,0-2.4-0.5-3.3-1.4c-0.9-0.9-1.4-2-1.4-3.3v-83.4l-27,51.2c-1.4,2.8-3.6,4.3-6.4,4.3h-8.1
			c-2.7,0-4.9-1.4-6.6-4.3l-27-51.2v83.4c0,1.3-0.4,2.4-1.3,3.3c-0.8,0.9-2,1.4-3.4,1.4H55.4C54.1,194.3,53,193.9,52.1,193z"/>
		<path d="M215.2,183.9c-8.5-8.3-13-20-13.5-35.3l-0.2-4.8c0-16.2,4.2-28.9,12.7-38.2c8.5-9.3,20.2-14,35.2-14
			c15.4,0,27.3,4.7,35.6,14c8.3,9.3,12.5,21.7,12.5,37.2v4.1c0,1.3-0.5,2.4-1.4,3.3c-0.9,0.9-2.1,1.4-3.5,1.4h-64.4v1.6
			c0.3,7.2,2.2,13.2,5.9,17.9c3.7,4.7,8.8,7.1,15.2,7.1c7.4,0,13.4-3,18-8.9c1.2-1.4,2.1-2.3,2.7-2.6c0.6-0.3,1.7-0.5,3.3-0.5h17.1
			c1.2,0,2.2,0.3,3,1c0.8,0.6,1.3,1.6,1.3,2.7c0,3.1-1.8,6.8-5.5,11c-3.7,4.2-9,7.9-15.8,11c-6.9,3.1-14.8,4.7-23.9,4.7
			C235.1,196.3,223.6,192.1,215.2,183.9z M270.7,135v-0.4c0-7.6-1.9-13.7-5.7-18.3c-3.8-4.6-9-6.9-15.6-6.9
			c-6.6,0-11.8,2.3-15.5,6.9c-3.8,4.6-5.6,10.7-5.6,18.3v0.4H270.7z"/>
		<path d="M336.9,185.1c-6-6.1-8.9-15.2-8.9-27.1v-43.8h-15.3c-1.3,0-2.4-0.5-3.3-1.4c-0.9-0.9-1.4-2-1.4-3.3V98.1
			c0-1.3,0.5-2.4,1.4-3.3c0.9-0.9,2-1.4,3.3-1.4H328V61.3c0-1.4,0.5-2.6,1.4-3.4c0.9-0.8,2-1.3,3.3-1.3h16.1c1.4,0,2.6,0.4,3.4,1.3
			c0.8,0.8,1.3,2,1.3,3.4v32.2h24.3c1.3,0,2.4,0.5,3.3,1.4c0.9,0.9,1.4,2,1.4,3.3v11.4c0,1.3-0.5,2.4-1.4,3.3
			c-0.9,0.9-2,1.4-3.3,1.4h-24.3v41.7c0,5.6,1,9.8,2.9,12.6c1.9,2.8,5.1,4.3,9.5,4.3h13.6c1.4,0,2.6,0.4,3.4,1.3
			c0.8,0.8,1.3,2,1.3,3.4v12.2c0,1.3-0.4,2.4-1.3,3.3c-0.8,0.9-2,1.4-3.4,1.4h-15.9C351.7,194.3,342.8,191.3,336.9,185.1z"/>
		<path d="M402.7,193c-0.9-0.9-1.4-2-1.4-3.3V98.3c0-1.4,0.5-2.6,1.4-3.5c0.9-0.9,2-1.4,3.3-1.4h15.9c1.4,0,2.6,0.5,3.5,1.4
			c0.9,0.9,1.4,2.1,1.4,3.5v8c6.5-8.5,15.8-12.8,27.9-12.8h8.1c1.4,0,2.6,0.4,3.4,1.3c0.8,0.8,1.3,2,1.3,3.4v14.2
			c0,1.3-0.4,2.4-1.3,3.3c-0.8,0.9-2,1.4-3.4,1.4h-15.3c-6.1,0-10.9,1.7-14.4,5.2s-5.2,8.3-5.2,14.4v53.2c0,1.3-0.5,2.4-1.4,3.3
			c-0.9,0.9-2,1.4-3.3,1.4h-17.3C404.7,194.3,403.6,193.9,402.7,193z"/>
		<path d="M490.7,184.6c-8.3-7.8-12.7-18.5-13.4-32.2l-0.2-8.5l0.2-8.5c0.6-13.6,5.2-24.3,13.6-32.1c8.4-7.8,20.1-11.7,35.1-11.7
			c14.9,0,26.5,3.9,34.9,11.7c8.4,7.8,12.9,18.5,13.6,32.1c0.1,1.6,0.2,4.4,0.2,8.5c0,4.1-0.1,7-0.2,8.5
			c-0.6,13.7-5.1,24.4-13.4,32.2c-8.3,7.8-20,11.6-35.1,11.6C510.8,196.3,499,192.4,490.7,184.6z M541.8,170.3
			c3.7-4.3,5.7-10.5,5.9-18.8c0.1-1.3,0.2-3.8,0.2-7.6c0-3.7-0.1-6.3-0.2-7.6c-0.3-8.3-2.3-14.6-6-18.9c-3.8-4.3-9-6.5-15.7-6.5
			c-6.9,0-12.2,2.2-15.9,6.5c-3.8,4.3-5.8,10.6-6,18.9l-0.2,7.6l0.2,7.6c0.3,8.3,2.3,14.5,6,18.8c3.8,4.3,9.1,6.4,15.9,6.4
			C532.9,176.7,538.2,174.5,541.8,170.3z"/>
	</g>
	<g>
		<path class="st5" d="M634.5,184.8c-7.2-6.4-10.8-15.9-10.8-28.5c0-5,0.5-10.1,1.4-15.1l9.4-53.4c0.8-5,1.2-8.1,1.2-9.2
			c0-2.9-0.8-5-2.3-6.4c-1.5-1.3-4.2-2.3-8.1-2.8c-0.4-2-0.6-4.2-0.6-6.8c0-1.2,0.1-3,0.4-5.4c6.4,0.4,15.7,0.6,28.1,0.6
			c12.4,0,22.1-0.2,29.3-0.6c0,4.3-0.7,8.3-2.2,12.2c-4.3,0.4-7.4,1.3-9.5,2.6c-2.1,1.3-3.5,3.3-4.4,5.9c-0.9,2.6-1.8,6.9-2.9,12.9
			l-8.6,49.4c-0.9,5.2-1.4,10.1-1.4,14.7c0,8.8,1.8,15.3,5.5,19.5c3.7,4.3,8.9,6.4,15.6,6.4c8.9,0,16.1-3.4,21.7-10.2
			c5.6-6.8,9.5-16.5,11.8-29.3l8.4-47.4c1.2-6.9,1.8-11.3,1.8-13.1c0-3.2-0.8-5.6-2.4-7.2c-1.6-1.6-4.4-3-8.4-4.2
			c-0.4-2-0.6-4-0.6-6.2c0-1.1,0.1-3.1,0.4-6c5.6,0.4,12.4,0.6,20.5,0.6c8.2,0,15.1-0.2,20.5-0.6c-0.3,4.5-1.1,8.6-2.4,12.2
			c-4.1,0.9-7.1,2.2-9.1,3.8c-1.9,1.6-3.4,4-4.4,7.2c-1,3.2-2.1,8.4-3.3,15.7l-7.6,43.4c-2.1,12.1-5.2,22.1-9.2,30.1
			c-4,8-9.6,14.1-16.7,18.3c-7.2,4.3-16.5,6.4-27.9,6.4C652.9,194.3,641.7,191.1,634.5,184.8z"/>
		<path class="st5" d="M770.6,79.4c0-3.1-0.9-5.3-2.6-6.9c-1.7-1.5-4.8-2.6-9.2-3.1c-0.4-2-0.6-4.2-0.6-6.8c0-1.2,0.1-3,0.4-5.4
			c5.7,0.4,15.3,0.6,28.9,0.6c13,0,22.8-0.2,29.5-0.6c-0.3,4.7-1.1,8.7-2.4,12.2c-3.7,0.5-6.5,1.4-8.3,2.5c-1.8,1.1-3.2,3-4.2,5.7
			c-1,2.7-2,6.9-3.1,12.7l-12.4,71.3c-0.8,5.3-1.2,8.6-1.2,10c0,2.7,0.8,4.7,2.4,6.2c1.6,1.5,4.5,2.5,8.8,3.2
			c0.5,3.2,0.8,5.6,0.8,7.2c0,0.9-0.1,2.6-0.4,5c-6.5-0.4-16-0.6-28.5-0.6c-11.8,0-21.7,0.2-29.7,0.6c0.4-4.6,1.3-8.7,2.8-12.2
			c3.7-0.5,6.4-1.3,8.2-2.3c1.7-1,3.1-2.7,4.1-5.1c1-2.4,2-6.2,2.9-11.6l12.8-73.9C770.3,84.2,770.6,81.2,770.6,79.4z"/>
	</g>
</g>
<path d="M6106,4201.1H4615.6c-7,0-12.7-5.7-12.7-12.7v-280.1c0-6.7,5.2-12.3,11.9-12.7l1030.8-69c61-4.1,122.3,1.1,181.7,15.4
	l281.6,67.7c5.7,1.4,9.8,6.5,9.8,12.4v266.3C6118.7,4195.4,6113,4201.1,6106,4201.1z"/>
<g>
	<path class="st4" d="M4652,4149c-1.2-1.6-1.8-3.5-1.8-5.7v-193.8c0-2.2,0.6-4.1,1.8-5.8c1.2-1.7,2.7-2.6,4.4-2.7l36.6-2.3
		c4.4-0.3,7.7,2.3,10.1,7.6l34.5,71.8l35.2-76c2.5-5.7,6-8.8,10.6-9l39.4-2.5c1.8-0.1,3.4,0.6,4.8,2.2c1.3,1.6,2,3.6,2,5.9v204
		c0,2.3-0.7,4.3-2,6c-1.4,1.7-2.9,2.5-4.8,2.5l-45.1,0c-1.8,0-3.4-0.8-4.7-2.5c-1.3-1.7-2-3.6-2-5.9v-85.1l-16.1,33.8
		c-1.1,2.3-2.4,4.2-3.8,5.6c-1.4,1.5-3.1,2.2-5.2,2.2l-16.8,0.3c-2.1,0-3.8-0.7-5.1-2.1c-1.4-1.4-2.6-3.2-3.7-5.5l-15.6-32.6v83.5
		c0,2.2-0.6,4.2-1.9,5.8c-1.3,1.6-2.7,2.4-4.5,2.4l-42,0C4654.6,4151.4,4653.2,4150.6,4652,4149z"/>
	<path class="st4" d="M4859.6,4148.6c-1.4-1.7-2.1-3.7-2.1-6V3937c0-2.3,0.7-4.4,2.1-6.2c1.4-1.8,3-2.7,4.9-2.9l137.4-8.6
		c2-0.1,3.8,0.6,5.3,2.3c1.5,1.7,2.2,3.7,2.2,6.2v46.8c0,2.4-0.7,4.6-2.2,6.4c-1.5,1.8-3.3,2.8-5.3,2.9l-81.6,3.7v20.4l75.5-3
		c2-0.1,3.8,0.7,5.3,2.4c1.5,1.7,2.2,3.8,2.2,6.2v43c0,2.4-0.7,4.5-2.2,6.3c-1.5,1.8-3.2,2.7-5.3,2.8l-75.5,1.8v20.4l83.8-1.5
		c2,0,3.8,0.8,5.3,2.6c1.5,1.7,2.2,3.8,2.2,6.3v46.8c0,2.4-0.7,4.5-2.2,6.3c-1.5,1.8-3.3,2.7-5.3,2.7l-139.6,0.1
		C4862.6,4151.2,4861,4150.3,4859.6,4148.6z"/>
	<path class="st4" d="M5084.2,4148.3c-1.6-1.8-2.3-3.9-2.3-6.4v-154.8l-47.5,2.1c-2.1,0.1-3.9-0.7-5.4-2.4c-1.5-1.7-2.3-3.8-2.3-6.2
		v-53.6c0-2.4,0.7-4.6,2.3-6.5c1.5-1.9,3.3-2.9,5.4-3l173.2-10.8c2.3-0.1,4.2,0.7,5.9,2.4c1.7,1.8,2.5,3.9,2.5,6.5v56.3
		c0,2.6-0.8,4.8-2.5,6.8c-1.7,1.9-3.6,3-5.9,3.1l-50.7,2.2v157.8c0,2.5-0.8,4.7-2.4,6.5c-1.6,1.8-3.5,2.8-5.7,2.8l-59.1,0.1
		C5087.6,4151,5085.8,4150.1,5084.2,4148.3z"/>
	<path class="st4" d="M5241,4148c-1.7-1.9-2.5-4.1-2.5-6.7v-227.2c0-2.6,0.8-4.9,2.5-6.8c1.7-2,3.7-3,6-3.2l95.5-6
		c32-2,57.3,4.3,75.7,19c18.6,14.8,27.9,36.3,27.9,64.4c0,16-3.4,30.3-10,42.7c-6.7,12.4-15.7,22.6-27.1,30.7l42.4,83.4
		c0.7,1.5,1,2.8,1,4.1c0,2.2-0.8,4.1-2.3,5.7c-1.5,1.6-3.3,2.4-5.4,2.4l-70,0.1c-4,0-7.2-1-9.5-3.1c-2.3-2-4-4.3-4.8-6.7l-28.5-68.6
		l-13.4,0.3v68.5c0,2.6-0.9,4.9-2.6,6.8c-1.7,1.9-3.8,2.9-6.2,2.9l-62.8,0.1C5244.7,4150.8,5242.7,4149.9,5241,4148z M5342.5,4003.5
		c4.8-0.2,8.6-2.1,11.3-5.7c2.7-3.6,4-8.1,4-13.4c0-5.3-1.3-9.9-3.8-13.8c-2.5-3.9-6.4-5.7-11.4-5.4l-24,1.1v38L5342.5,4003.5z"/>
	<path class="st4" d="M5504.3,4128.5c-21.1-17-32.2-41.9-33.6-74.6c-0.2-6.7-0.4-17.5-0.4-32.4c0-15.1,0.1-26.2,0.4-33.1
		c0.7-21.4,6-40,16-55.9c10.1-16,23.9-28.5,41.7-37.6c17.9-9.2,38.9-14.5,63-16.1c24.4-1.5,46.1,1.2,64.9,8.3
		c19,7.2,34,18.6,45.1,34.2c11.1,15.7,17.1,34.8,17.8,57.4c0.5,14.7,0.8,26.4,0.8,35c0,8.7-0.3,20.1-0.8,34.3
		c-1.6,34.7-14,61.2-37.1,79.4c-22.9,18-53.2,27-90.7,27C5554.5,4154.4,5525.6,4145.7,5504.3,4128.5z M5611.3,4071.7
		c4.9-5.2,7.5-13.1,7.7-23.6c0.5-14.9,0.8-25.8,0.8-32.8c0-7.4-0.3-18.1-0.8-31.9c-0.3-10.5-2.9-18.2-7.9-23.1
		c-5-4.9-11.6-7.2-19.8-6.8c-8.2,0.4-14.7,3.2-19.6,8.5c-4.9,5.3-7.5,13.1-7.7,23.5c-0.2,6.9-0.4,17.4-0.4,31.6
		c0,14.2,0.1,25,0.4,32.3c0.2,10.4,2.8,18.1,7.5,23.1c4.8,5,11.4,7.4,19.8,7.3C5599.8,4079.6,5606.5,4076.9,5611.3,4071.7z"/>
</g>
<g>
	<path class="st4" d="M5954.2,4106.1c-2.4,11.7-6.9,21.2-13.5,28.5c-11.5,12.5-28.9,18.9-52.6,18.9c-21.2,0-38.6-3.3-51.7-10
		c-13.4-6.9-23.2-17.2-29.1-31.1c-6-14-9.1-32.1-9.1-54.3v-109.8c0-10.9-0.6-19.1-1.9-24.6c-1.3-5.5-3.5-9.6-6.7-12.4
		c-3.2-2.8-8.5-5.5-15.9-8.1c-1.6-7.3-2.4-15.6-2.4-24.9c10.8,3.3,27.1,7.4,48.3,12.3c28.2,6.5,47.1,10.4,57.4,12.1
		c0,9.5-0.7,16.8-2,21.8c-6.7-0.4-11.6,0-14.5,1.4c-3,1.4-5,4.4-6.2,9c-1.2,4.6-1.7,12.3-1.7,23v98.8c0,23.4,3.8,41.3,11.3,53.7
		c7.4,12.3,19.3,18.5,35.2,18.9c5.5,0.1,10.9-0.9,16.3-3.1c5.3-2.2,9.7-5.5,13.1-10.1c3.8-5.2,6.5-12.1,8.2-20.9
		c1.7-8.7,2.5-21.8,2.5-39.2v-72.9c0-11.5-0.6-20.3-1.8-26.6c-1.2-6.3-3.2-11.1-6-14.5c-2.8-3.4-7-6.1-12.7-8.2
		c-1-7-1.5-14.2-1.5-21.7c7.5,2.4,17.9,5.1,30.8,8.1c12.2,2.8,21.7,4.6,28.5,5.5c0,7.7-0.5,14.3-1.6,19.9c-4.6-0.3-8.1,0.6-10.6,2.6
		c-2.4,2.1-4.1,5.9-5.1,11.6c-1,5.7-1.4,13.9-1.4,24.7v73.9C5957.8,4078.6,5956.6,4094.5,5954.2,4106.1z"/>
	<path class="st4" d="M6014.8,3966.2c-0.9-4.3-2.5-7.6-4.8-9.8c-2.3-2.2-5.9-4.1-10.7-5.8c-1.4-5.5-2.1-12.2-2.1-20.2
		c9,2.7,21.9,6,38.4,9.8c13.7,3.1,25,5.4,34.1,6.9c0,7.8-0.5,13.8-1.6,18c-4.2-0.3-7.4,0.2-9.6,1.3c-2.2,1.2-3.7,3.7-4.5,7.6
		c-0.9,3.9-1.3,9.9-1.3,18.1v110.4c0,8.4,0.4,14.6,1.3,18.7c0.9,4.1,2.4,7,4.5,8.8c2.1,1.8,5.4,2.9,9.6,3.4c1,4,1.6,10.1,1.6,18.3
		c-7.9-0.6-18.8-1-32.9-1c-15.6,0-28.8,0.2-39.6,0.9c0-6.7,0.7-13.3,2.1-19.7c4.9-0.3,8.4-1.4,10.7-3.1c2.3-1.7,3.9-4.7,4.8-8.9
		c0.9-4.2,1.4-10.6,1.4-19.3v-114.8C6016.2,3977,6015.8,3970.5,6014.8,3966.2z"/>
</g>
<g>
	<path d="M7059.7,3965.3l-24,1.1v38l24-0.9c4.8-0.2,8.6-2.1,11.3-5.7c2.7-3.6,4-8.1,4-13.4c0-5.3-1.3-9.9-3.8-13.8
		C7068.6,3966.9,7064.8,3965.1,7059.7,3965.3z"/>
	<path d="M7328.4,3960.2c-5-4.9-11.6-7.2-19.8-6.8c-8.2,0.4-14.7,3.2-19.6,8.5c-4.9,5.3-7.5,13.1-7.7,23.5
		c-0.2,6.9-0.4,17.4-0.4,31.6c0,14.2,0.1,25,0.4,32.3c0.2,10.4,2.8,18.1,7.5,23.1c4.8,5,11.4,7.4,19.8,7.3c8.4-0.1,15.1-2.8,20-8
		c4.9-5.2,7.5-13.1,7.7-23.6c0.5-14.9,0.8-25.8,0.8-32.8c0-7.4-0.3-18.1-0.8-31.9C7336,3972.9,7333.4,3965.1,7328.4,3960.2z"/>
	<path d="M7826.2,3909.6l-281.6-67.7c-59.4-14.3-120.7-19.5-181.7-15.4l-1030.8,69c-6.7,0.4-11.9,6-11.9,12.7v280.1
		c0,7,5.7,12.7,12.7,12.7h1490.3c7,0,12.7-5.7,12.7-12.7V3922C7835.9,3916.1,7831.9,3911,7826.2,3909.6z M6546.7,4142.7
		c0,2.3-0.7,4.3-2,6c-1.4,1.7-2.9,2.5-4.8,2.5l-45.1,0c-1.8,0-3.4-0.8-4.7-2.5c-1.3-1.7-2-3.6-2-5.9v-85.1l-16.1,33.8
		c-1.1,2.3-2.4,4.2-3.8,5.6c-1.4,1.5-3.1,2.2-5.2,2.2l-16.8,0.3c-2.1,0-3.8-0.7-5.1-2.1c-1.4-1.4-2.6-3.2-3.7-5.5l-15.6-32.6v83.5
		c0,2.2-0.6,4.2-1.9,5.8c-1.3,1.6-2.7,2.4-4.5,2.4l-42,0c-1.7,0-3.1-0.8-4.4-2.4c-1.2-1.6-1.8-3.5-1.8-5.7v-193.8
		c0-2.2,0.6-4.1,1.8-5.8c1.2-1.7,2.7-2.6,4.4-2.7l36.6-2.3c4.4-0.3,7.7,2.3,10.1,7.6l34.5,71.8l35.2-76c2.5-5.7,6-8.8,10.6-9
		l39.4-2.5c1.8-0.1,3.4,0.6,4.8,2.2c1.3,1.6,2,3.6,2,5.9V4142.7z M6728.8,4142.1c0,2.4-0.7,4.5-2.2,6.3c-1.5,1.8-3.3,2.7-5.3,2.7
		l-139.6,0.1c-1.9,0-3.5-0.8-4.9-2.5c-1.4-1.7-2.1-3.7-2.1-6V3937c0-2.3,0.7-4.4,2.1-6.2c1.4-1.8,3-2.7,4.9-2.9l137.4-8.6
		c2-0.1,3.8,0.6,5.3,2.3c1.5,1.7,2.2,3.7,2.2,6.2v46.8c0,2.4-0.7,4.6-2.2,6.4c-1.5,1.8-3.3,2.8-5.3,2.9l-81.6,3.7v20.4l75.5-3
		c2-0.1,3.8,0.7,5.3,2.4c1.5,1.7,2.2,3.8,2.2,6.2v43c0,2.4-0.7,4.5-2.2,6.3c-1.5,1.8-3.2,2.7-5.3,2.8l-75.5,1.8v20.4l83.8-1.5
		c2,0,3.8,0.8,5.3,2.6c1.5,1.7,2.2,3.8,2.2,6.3V4142.1z M6933.2,3971.8c0,2.6-0.8,4.8-2.5,6.8c-1.7,1.9-3.6,3-5.9,3.1l-50.7,2.2
		v157.8c0,2.5-0.8,4.7-2.4,6.5c-1.6,1.8-3.5,2.8-5.7,2.8l-59.1,0.1c-2.1,0-4-0.9-5.5-2.7c-1.6-1.8-2.3-3.9-2.3-6.4v-154.8l-47.5,2.1
		c-2.1,0.1-3.9-0.7-5.4-2.4c-1.5-1.7-2.3-3.8-2.3-6.2v-53.6c0-2.4,0.7-4.6,2.3-6.5c1.5-1.9,3.3-2.9,5.4-3l173.2-10.8
		c2.3-0.1,4.2,0.7,5.9,2.4c1.7,1.8,2.5,3.9,2.5,6.5V3971.8z M7167.4,4148.2c-1.5,1.6-3.3,2.4-5.4,2.4l-70,0.1c-4,0-7.2-1-9.5-3.1
		c-2.3-2-4-4.3-4.8-6.7l-28.5-68.6l-13.4,0.3v68.5c0,2.6-0.9,4.9-2.6,6.8c-1.7,1.9-3.8,2.9-6.2,2.9l-62.8,0.1c-2.3,0-4.3-0.9-6-2.8
		c-1.7-1.9-2.5-4.1-2.5-6.7v-227.2c0-2.6,0.8-4.9,2.5-6.8c1.7-2,3.7-3,6-3.2l95.5-6c32-2,57.3,4.3,75.7,19
		c18.6,14.8,27.9,36.3,27.9,64.4c0,16-3.4,30.3-10,42.7c-6.7,12.4-15.7,22.6-27.1,30.7l42.4,83.4c0.7,1.5,1,2.8,1,4.1
		C7169.7,4144.7,7168.9,4146.6,7167.4,4148.2z M7436.4,4048c-1.6,34.7-14,61.2-37.1,79.4c-22.9,18-53.2,27-90.7,27
		c-36.9,0-65.8-8.7-87.1-25.9c-21.1-17-32.2-41.9-33.6-74.6c-0.2-6.7-0.4-17.5-0.4-32.4c0-15.1,0.1-26.2,0.4-33.1
		c0.7-21.4,6-40,16-55.9c10.1-16,23.9-28.5,41.7-37.6c17.9-9.2,38.9-14.5,63-16.1c24.4-1.5,46.1,1.2,64.9,8.3
		c19,7.2,34,18.6,45.1,34.2c11.1,15.7,17.1,34.8,17.8,57.4c0.5,14.7,0.8,26.4,0.8,35C7437.1,4022.4,7436.9,4033.8,7436.4,4048z
		 M7692,3945.5c-4.6-0.3-8.1,0.6-10.6,2.6c-2.4,2.1-4.1,5.9-5.1,11.6c-1,5.7-1.4,13.9-1.4,24.7v73.9c0,20.2-1.2,36.2-3.6,47.7
		c-2.4,11.7-6.9,21.2-13.5,28.5c-11.5,12.5-28.9,18.9-52.6,18.9c-21.2,0-38.6-3.3-51.7-10c-13.4-6.9-23.2-17.2-29.1-31.1
		c-6-14-9.1-32.1-9.1-54.3v-109.8c0-10.9-0.6-19.1-1.9-24.6c-1.3-5.5-3.5-9.6-6.7-12.4c-3.2-2.8-8.5-5.5-15.9-8.1
		c-1.6-7.3-2.4-15.6-2.4-24.9c10.8,3.3,27.1,7.4,48.3,12.3c28.2,6.5,47.1,10.4,57.4,12.1c0,9.5-0.7,16.8-2,21.8
		c-6.7-0.4-11.6,0-14.5,1.4c-3,1.4-5,4.4-6.2,9c-1.2,4.6-1.7,12.3-1.7,23v98.8c0,23.4,3.8,41.3,11.3,53.7
		c7.4,12.3,19.3,18.5,35.2,18.9c5.5,0.1,10.9-0.9,16.3-3.1c5.3-2.2,9.7-5.5,13.1-10.1c3.8-5.2,6.5-12.1,8.2-20.9
		c1.7-8.7,2.5-21.8,2.5-39.2v-72.9c0-11.5-0.6-20.3-1.8-26.6c-1.2-6.3-3.2-11.1-6-14.5c-2.8-3.4-7-6.1-12.7-8.2
		c-1-7-1.5-14.2-1.5-21.7c7.5,2.4,17.9,5.1,30.8,8.1c12.2,2.8,21.7,4.6,28.5,5.5C7693.7,3933.4,7693.1,3940,7692,3945.5z
		 M7771.2,4121.2c0.9,4.1,2.4,7,4.5,8.8c2.1,1.8,5.4,2.9,9.6,3.4c1,4,1.6,10.1,1.6,18.3c-7.9-0.6-18.8-1-32.9-1
		c-15.6,0-28.8,0.2-39.6,0.9c0-6.7,0.7-13.3,2.1-19.7c4.9-0.3,8.4-1.4,10.7-3.1c2.3-1.7,3.9-4.7,4.8-8.9c0.9-4.2,1.4-10.6,1.4-19.3
		v-114.8c0-8.7-0.5-15.2-1.4-19.5c-0.9-4.3-2.5-7.6-4.8-9.8c-2.3-2.2-5.9-4.1-10.7-5.8c-1.4-5.5-2.1-12.2-2.1-20.2
		c9,2.7,21.9,6,38.4,9.8c13.7,3.1,25,5.4,34.1,6.9c0,7.8-0.5,13.8-1.6,18c-4.2-0.3-7.4,0.2-9.6,1.3c-2.2,1.2-3.7,3.7-4.5,7.6
		c-0.9,3.9-1.3,9.9-1.3,18.1v110.4C7769.9,4110.8,7770.3,4117.1,7771.2,4121.2z"/>
</g>
</svg>
