<svg width="24" height="24" viewBox="0 0 24 24" fill="none" xmlns="http://www.w3.org/2000/svg">
<path d="M16.9959 1.95312C16.7309 1.95312 16.4649 2.04713 16.2769 2.23413C15.7209 2.79013 13.7199 4.79115 13.2759 5.23615L4.27063 14.2412L3.27013 15.2412C3.13043 15.3812 3.05873 15.5792 3.02003 15.7732L2.01943 20.7762C1.87943 21.4762 2.47623 22.0721 3.17633 21.9331C3.80163 21.8071 7.55373 21.0572 8.17903 20.9322C8.37273 20.8932 8.57093 20.8212 8.71053 20.6822L9.71113 19.6812L18.7159 10.6762C19.1609 10.2322 21.1619 8.23012 21.7179 7.67512C21.9049 7.48712 21.9989 7.22113 21.9989 6.95613C21.9989 5.31912 21.5819 4.14912 20.7169 3.26612C19.8439 2.37511 18.6779 1.95312 16.9959 1.95312ZM17.3899 3.97211C18.2929 4.02511 18.8779 4.23216 19.2789 4.64216C19.6889 5.06016 19.9479 5.64015 20.0039 6.52516C19.4559 7.07216 18.6539 7.86212 17.9969 8.51912C17.2039 7.72612 16.2259 6.74815 15.4329 5.95515C16.0909 5.29815 16.8429 4.51911 17.3899 3.97211ZM4.98983 16.3982L7.55373 18.9621L7.45993 19.0562C6.79993 19.1882 5.46713 19.4672 4.23943 19.7132L4.89603 16.4922L4.98983 16.3982Z" fill="black"/>
</svg>
