<svg width="20" height="20" viewBox="0 0 20 20" fill="none" xmlns="http://www.w3.org/2000/svg">
<path d="M10.0118 1.66574C5.4093 1.66574 1.67847 5.39657 1.67847 9.99907C1.67847 14.6016 5.4093 18.3324 10.0118 18.3324C14.6143 18.3324 18.3451 14.6016 18.3451 9.99907C18.3451 5.39657 14.6143 1.66574 10.0118 1.66574ZM10.0118 5.83241C10.4718 5.83241 10.8451 6.20574 10.8451 6.66574V10.8324C10.8451 11.2924 10.4718 11.6657 10.0118 11.6657C9.5518 11.6657 9.17847 11.2924 9.17847 10.8324V6.66574C9.17847 6.20574 9.5518 5.83241 10.0118 5.83241ZM10.0118 12.4991C10.4718 12.4991 10.8451 12.8724 10.8451 13.3324C10.8451 13.7924 10.4718 14.1657 10.0118 14.1657C9.5518 14.1657 9.17847 13.7924 9.17847 13.3324C9.17847 12.8724 9.5518 12.4991 10.0118 12.4991Z" fill="#A68A20"/>
</svg>
