<svg xmlns="http://www.w3.org/2000/svg" viewBox="0 0 222.55 51.88"><defs><style>.cls-1{fill:#fff;}.cls-2{fill:#f9f9f9;}</style></defs><g id="Layer_2" data-name="Layer 2"><g id="Layer_1-2" data-name="Layer 1"><rect class="cls-1" width="222.55" height="3.84" rx="0.8"/><rect class="cls-1" y="48.04" width="222.55" height="3.84" rx="0.85"/><path class="cls-2" d="M1.29,42.32a1.09,1.09,0,0,1-.35-.83V11.55a1.15,1.15,0,0,1,.35-.85,1.15,1.15,0,0,1,.85-.35H7.35a1.72,1.72,0,0,1,1.66,1L17,25.57l8-14.2a1.71,1.71,0,0,1,1.66-1H31.8a1.2,1.2,0,0,1,1.2,1.2V41.49a1.09,1.09,0,0,1-.35.83,1.21,1.21,0,0,1-.85.32H25.94a1.11,1.11,0,0,1-.81-.35,1.1,1.1,0,0,1-.34-.8V24.7l-5,9.13a1.81,1.81,0,0,1-1.62,1.06H15.7a1.93,1.93,0,0,1-1.61-1.06L9.15,24.7V41.49a1.06,1.06,0,0,1-.35.83,1.21,1.21,0,0,1-.85.32H2.14A1.21,1.21,0,0,1,1.29,42.32Z"/><path class="cls-2" d="M39.62,42.29a1.07,1.07,0,0,1-.35-.8V11.55a1.21,1.21,0,0,1,.32-.85,1.09,1.09,0,0,1,.83-.35H62.19a1.18,1.18,0,0,1,.86.35,1.15,1.15,0,0,1,.34.85v4.57a1.09,1.09,0,0,1-.34.83,1.24,1.24,0,0,1-.86.32H47.62v5.86H61.18a1.15,1.15,0,0,1,.85.34,1.19,1.19,0,0,1,.35.86v4.2a1.17,1.17,0,0,1-.35.85,1.15,1.15,0,0,1-.85.34H47.62v6H62.56a1.18,1.18,0,0,1,.86.35,1.15,1.15,0,0,1,.34.85v4.57a1.09,1.09,0,0,1-.34.83,1.24,1.24,0,0,1-.86.32H40.42A1.09,1.09,0,0,1,39.62,42.29Z"/><path class="cls-2" d="M76.33,42.32a1.09,1.09,0,0,1-.35-.83V17.87H67.87a1.24,1.24,0,0,1-.86-.32,1.09,1.09,0,0,1-.34-.83V11.55A1.15,1.15,0,0,1,67,10.7a1.18,1.18,0,0,1,.86-.35h25a1.18,1.18,0,0,1,.86.35,1.15,1.15,0,0,1,.34.85v5.17a1.09,1.09,0,0,1-.34.83,1.24,1.24,0,0,1-.86.32H84.79V41.49a1.09,1.09,0,0,1-.34.83,1.23,1.23,0,0,1-.85.32H77.18A1.23,1.23,0,0,1,76.33,42.32Z"/><path class="cls-2" d="M98.52,42.29a1.11,1.11,0,0,1-.35-.8V11.55a1.21,1.21,0,0,1,.32-.85,1.09,1.09,0,0,1,.83-.35H112q6.09,0,9.52,2.77A9.43,9.43,0,0,1,125,20.91a9.67,9.67,0,0,1-1.5,5.49,9.94,9.94,0,0,1-4.13,3.51l6.23,11.25a1.23,1.23,0,0,1,.14.51,1,1,0,0,1-.28.67.9.9,0,0,1-.69.3h-6.51a1.93,1.93,0,0,1-1.89-1.25l-5.07-10h-4.43v10.1a1.09,1.09,0,0,1-.34.83,1.24,1.24,0,0,1-.86.32H99.32A1.11,1.11,0,0,1,98.52,42.29ZM112,24.6a4.21,4.21,0,0,0,3-1,3.61,3.61,0,0,0,1-2.74,3.88,3.88,0,0,0-1-2.82A4.07,4.07,0,0,0,112,17h-5.12V24.6Z"/><path class="cls-2" d="M133.13,39.92q-3.78-3.18-4-9.37c0-.86-.05-2.18-.05-4s0-3.12.05-4q.18-6.09,4-9.39t10.3-3.3q6.42,0,10.27,3.3t4,9.39c.06,1.78.1,3.12.1,4s0,2.24-.1,4q-.22,6.19-4,9.37T143.46,43.1Q136.92,43.1,133.13,39.92Zm14.16-5.19a6.42,6.42,0,0,0,1.53-4.45c.06-1.78.09-3.06.09-3.83s0-2-.09-3.74a6.44,6.44,0,0,0-1.53-4.45,5.84,5.84,0,0,0-7.7,0,6.44,6.44,0,0,0-1.52,4.45c0,.86,0,2.11,0,3.74s0,2.94,0,3.83a6.42,6.42,0,0,0,1.52,4.45,5.84,5.84,0,0,0,7.7,0Z"/><path class="cls-2" d="M179.37,41.21c-1.66-1.48-2.49-3.67-2.49-6.6a19.81,19.81,0,0,1,.32-3.5l2.17-12.36a20.38,20.38,0,0,0,.28-2.12,1.88,1.88,0,0,0-.53-1.48,3.76,3.76,0,0,0-1.87-.65,8.14,8.14,0,0,1-.14-1.56c0-.28,0-.7.09-1.25q2.22.13,6.51.14t6.78-.14A7.82,7.82,0,0,1,190,14.5a5.25,5.25,0,0,0-2.19.6,2.43,2.43,0,0,0-1,1.36,21.18,21.18,0,0,0-.67,3l-2,11.44a19.87,19.87,0,0,0-.32,3.41,6.77,6.77,0,0,0,1.27,4.52,4.49,4.49,0,0,0,3.62,1.48,6.23,6.23,0,0,0,5-2.35,14.56,14.56,0,0,0,2.72-6.79l1.94-11a25.88,25.88,0,0,0,.41-3.05,2.25,2.25,0,0,0-.55-1.66,4.75,4.75,0,0,0-1.94-1,7.38,7.38,0,0,1-.14-1.43q0-.36.09-1.38c1.3.09,2.88.14,4.75.14s3.49-.05,4.76-.14a9.86,9.86,0,0,1-.56,2.81,5.18,5.18,0,0,0-2.1.88,3.43,3.43,0,0,0-1,1.66,28.7,28.7,0,0,0-.76,3.64l-1.76,10.06a25.15,25.15,0,0,1-2.12,7A10,10,0,0,1,193.58,42a12.58,12.58,0,0,1-6.46,1.47C183.62,43.42,181,42.69,179.37,41.21Z"/><path class="cls-2" d="M210.88,16.81a2,2,0,0,0-.6-1.59,4.1,4.1,0,0,0-2.13-.72,8.19,8.19,0,0,1-.13-1.56c0-.28,0-.7.09-1.25q2,.13,6.69.14,4.51,0,6.82-.14a9.16,9.16,0,0,1-.55,2.81,5.27,5.27,0,0,0-1.92.58,2.55,2.55,0,0,0-1,1.31,19.3,19.3,0,0,0-.72,3l-2.86,16.51c-.18,1.23-.28,2-.28,2.31a1.85,1.85,0,0,0,.56,1.43,4,4,0,0,0,2,.73A11.51,11.51,0,0,1,217.1,42c0,.22,0,.6-.09,1.16-1.51-.1-3.71-.14-6.6-.14-2.73,0-5,0-6.87.14a9.14,9.14,0,0,1,.65-2.82,5.49,5.49,0,0,0,1.89-.53,2.31,2.31,0,0,0,.94-1.17,13.59,13.59,0,0,0,.67-2.68l2.95-17.11A13.29,13.29,0,0,0,210.88,16.81Z"/></g></g></svg>