<svg width="24" height="24" viewBox="0 0 24 24" fill="none" xmlns="http://www.w3.org/2000/svg">
<rect width="24" height="24" rx="12" fill="#404040"/>
<path d="M15.2778 11.4998C15.2188 11.4715 15.1589 11.4443 15.0982 11.4182C14.9924 9.47 13.9279 8.35466 12.1404 8.34324C12.1323 8.34319 12.1243 8.34319 12.1162 8.34319C11.047 8.34319 10.1579 8.79955 9.61057 9.62999L10.5936 10.3043C11.0025 9.68404 11.6441 9.5518 12.1167 9.5518C12.1221 9.5518 12.1276 9.5518 12.133 9.55185C12.7215 9.5556 13.1657 9.72672 13.4531 10.0604C13.6623 10.3034 13.8022 10.6391 13.8715 11.0628C13.3497 10.9741 12.7853 10.9468 12.182 10.9814C10.4826 11.0793 9.39005 12.0705 9.46343 13.4477C9.50067 14.1463 9.8487 14.7473 10.4434 15.1399C10.9462 15.4718 11.5937 15.6341 12.2667 15.5974C13.1555 15.5487 13.8528 15.2096 14.3392 14.5895C14.7086 14.1186 14.9423 13.5084 15.0454 12.7396C15.469 12.9952 15.7829 13.3316 15.9563 13.7359C16.2511 14.4233 16.2683 15.5529 15.3466 16.4739C14.539 17.2806 13.5683 17.6296 12.1013 17.6404C10.474 17.6284 9.24328 17.1065 8.4431 16.0892C7.6938 15.1367 7.30656 13.7609 7.29211 12C7.30656 10.2391 7.6938 8.86324 8.4431 7.91073C9.24328 6.89352 10.474 6.37164 12.1013 6.35955C13.7404 6.37173 14.9926 6.89612 15.8234 7.91824C16.2308 8.41948 16.5379 9.04982 16.7404 9.78478L17.8924 9.47742C17.6469 8.57277 17.2608 7.79323 16.7352 7.14673C15.6701 5.83632 14.1124 5.16486 12.1053 5.15094H12.0973C10.0943 5.16481 8.55397 5.83883 7.5192 7.15424C6.59841 8.32479 6.12343 9.95353 6.10747 11.9952L6.10742 12L6.10747 12.0048C6.12343 14.0464 6.59841 15.6752 7.5192 16.8458C8.55397 18.1612 10.0943 18.8352 12.0973 18.8491H12.1053C13.8861 18.8367 15.1413 18.3705 16.1754 17.3373C17.5283 15.9857 17.4876 14.2915 17.0417 13.2514C16.7217 12.5056 16.1118 11.8998 15.2778 11.4998ZM12.2031 14.3905C11.4583 14.4325 10.6845 14.0982 10.6463 13.3821C10.618 12.8511 11.0242 12.2587 12.2488 12.1881C12.3891 12.18 12.5267 12.1761 12.6619 12.1761C13.1067 12.1761 13.5229 12.2193 13.9012 12.302C13.7601 14.0643 12.9324 14.3505 12.2031 14.3905Z" fill="#F8F8F8"/>
</svg>
