<svg width="24" height="24" viewBox="0 0 24 24" fill="none" xmlns="http://www.w3.org/2000/svg">
<path d="M7.98254 2.01416C5.42954 2.01416 3.98254 3.46186 3.98254 6.01416V21.0142C3.98254 21.7321 4.72855 22.2027 5.38855 21.9204L11.9825 19.108L18.5756 21.9204C19.2356 22.2033 19.9825 21.732 19.9825 21.0142V6.01416C19.9825 3.39076 18.6775 2.01416 15.9825 2.01416H7.98254ZM11.9825 7.01416C12.5345 7.01416 12.9825 7.46186 12.9825 8.01416V10.0142H14.9825C15.5345 10.0142 15.9825 10.4619 15.9825 11.0142C15.9825 11.5665 15.5345 12.0142 14.9825 12.0142H12.9825V14.0142C12.9825 14.5665 12.5345 15.0142 11.9825 15.0142C11.4295 15.0142 10.9825 14.5665 10.9825 14.0142V12.0142H8.98254C8.42954 12.0142 7.98254 11.5665 7.98254 11.0142C7.98254 10.4619 8.42954 10.0142 8.98254 10.0142H10.9825V8.01416C10.9825 7.46186 11.4295 7.01416 11.9825 7.01416Z" fill="black"/>
</svg>
