<svg width="24" height="24" viewBox="0 0 24 24" fill="none" xmlns="http://www.w3.org/2000/svg">
<path d="M11.9989 2.0141C6.4761 2.0141 1.9989 6.4911 1.9989 12.0141C1.9989 17.5371 6.4761 22.0141 11.9989 22.0141C17.5217 22.0141 21.9989 17.5371 21.9989 12.0141C21.9989 6.4911 17.5217 2.0141 11.9989 2.0141ZM11.9989 7.0141C12.5512 7.0141 12.9989 7.4621 12.9989 8.0141C12.9989 8.5661 12.5512 9.0141 11.9989 9.0141C11.4466 9.0141 10.9989 8.5661 10.9989 8.0141C10.9989 7.4621 11.4466 7.0141 11.9989 7.0141ZM11.9989 10.0141C12.5512 10.0141 12.9989 10.4621 12.9989 11.0141V16.0141C12.9989 16.5661 12.5512 17.0141 11.9989 17.0141C11.4466 17.0141 10.9989 16.5661 10.9989 16.0141V11.0141C10.9989 10.4621 11.4466 10.0141 11.9989 10.0141Z" fill="black"/>
</svg>
