<svg width="24" height="24" viewBox="0 0 24 24" fill="none" xmlns="http://www.w3.org/2000/svg">
<path d="M11.9989 1.95319C10.64 1.95319 9.4611 2.60519 8.5301 3.57819C7.1759 3.54819 5.8581 3.90619 4.9051 4.85919C3.9522 5.81219 3.5934 7.13019 3.6239 8.48419C2.6506 9.41519 1.9989 10.5942 1.9989 11.9532C1.9989 13.3122 2.6506 14.4912 3.6239 15.4222C3.5934 16.7762 3.9522 18.0942 4.9051 19.0472C5.8582 20.0002 7.1759 20.3592 8.5301 20.3282C9.4611 21.3012 10.64 21.9532 11.9989 21.9532C13.3578 21.9532 14.5367 21.3012 15.4677 20.3282C16.8219 20.3582 18.1397 20.0002 19.0927 19.0472C20.0456 18.0942 20.4044 16.7762 20.3739 15.4222C21.3472 14.4912 21.9989 13.3122 21.9989 11.9532C21.9989 10.5942 21.3472 9.41519 20.3739 8.48419C20.4044 7.13019 20.0456 5.81219 19.0927 4.85919C18.1396 3.90619 16.8219 3.54719 15.4677 3.57819C14.5367 2.60519 13.3578 1.95319 11.9989 1.95319ZM14.9989 8.95319C15.2548 8.95319 15.5224 9.03919 15.7177 9.23419C16.1082 9.62519 16.1082 10.2812 15.7177 10.6722L11.7177 14.6722C11.3271 15.0622 10.6707 15.0622 10.2801 14.6722L8.2801 12.6722C7.8896 12.2812 7.8896 11.6252 8.2801 11.2342C8.6707 10.8442 9.3271 10.8442 9.7177 11.2342L10.9989 12.5152L14.2801 9.23419C14.4754 9.03919 14.743 8.95319 14.9989 8.95319Z" fill="black"/>
</svg>
