<svg width="24" height="24" viewBox="0 0 24 24" fill="none" xmlns="http://www.w3.org/2000/svg">
<path d="M14.0098 3.95321C14.0098 2.84821 13.1144 1.95322 12.0098 1.95322C10.9052 1.95322 10.0098 2.84821 10.0098 3.95321C10.0098 5.05821 10.9052 5.9532 12.0098 5.9532C13.1144 5.9532 14.0098 5.05821 14.0098 3.95321ZM14.0098 11.9532C14.0098 10.8482 13.1144 9.95319 12.0098 9.95319C10.9052 9.95319 10.0098 10.8482 10.0098 11.9532C10.0098 13.0582 10.9052 13.9532 12.0098 13.9532C13.1144 13.9532 14.0098 13.0582 14.0098 11.9532ZM14.0098 19.9532C14.0098 18.8482 13.1144 17.9532 12.0098 17.9532C10.9052 17.9532 10.0098 18.8482 10.0098 19.9532C10.0098 21.0582 10.9052 21.9532 12.0098 21.9532C13.1144 21.9532 14.0098 21.0582 14.0098 19.9532Z" fill="black"/>
</svg>
