<?xml version="1.0" encoding="utf-8"?>
<!-- Generator: Adobe Illustrator 25.0.1, SVG Export Plug-In . SVG Version: 6.00 Build 0)  -->
<svg version="1.1" id="Layer_1" xmlns="http://www.w3.org/2000/svg" xmlns:xlink="http://www.w3.org/1999/xlink" x="0px" y="0px"
	 viewBox="0 0 886.2 250.8" style="enable-background:new 0 0 886.2 250.8;" xml:space="preserve">
<style type="text/css">
	.st0{fill:#FFFFFF;stroke:#000000;stroke-miterlimit:10;}
	.st1{fill:#FFFFFF;}
	.st2{opacity:0.57;fill:#F75E5E;}
	.st3{fill:none;}
	.st4{fill:#F9F9F9;}
	.st5{fill:#191919;}
</style>
<g>
	<path class="st5" d="M858.5,244H9.2c-0.5,0-0.8-0.4-0.8-0.8v-14.9c0-0.5,0.4-0.8,0.8-0.8h849.3c0.5,0,0.8,0.4,0.8,0.8v14.9
		C859.4,243.6,859,244,858.5,244z"/>
	<path class="st5" d="M858.5,23.4H9.2c-0.5,0-0.8-0.4-0.8-0.8V7.6c0-0.5,0.4-0.8,0.8-0.8h849.3c0.5,0,0.8,0.4,0.8,0.8v14.9
		C859.4,23,859,23.4,858.5,23.4z"/>
</g>
<g>
	<g>
		<path d="M52.1,193c-0.9-0.9-1.4-2-1.4-3.3V63.4c0-1.4,0.4-2.6,1.3-3.5c0.8-0.9,2-1.4,3.4-1.4h15.7c2.5,0,4.4,1.2,5.8,3.7
			l37.4,69.5l37.4-69.5c1.4-2.5,3.4-3.7,5.8-3.7h15.5c1.4,0,2.6,0.5,3.5,1.4c0.9,0.9,1.4,2.1,1.4,3.5v126.3c0,1.4-0.5,2.6-1.4,3.4
			c-0.9,0.8-2.1,1.3-3.5,1.3h-16.7c-1.3,0-2.4-0.5-3.3-1.4c-0.9-0.9-1.4-2-1.4-3.3v-83.4l-27,51.2c-1.4,2.8-3.6,4.3-6.4,4.3h-8.1
			c-2.7,0-4.9-1.4-6.6-4.3l-27-51.2v83.4c0,1.3-0.4,2.4-1.3,3.3c-0.8,0.9-2,1.4-3.4,1.4H55.4C54.1,194.3,53,193.9,52.1,193z"/>
		<path d="M215.2,183.9c-8.5-8.3-13-20-13.5-35.3l-0.2-4.8c0-16.2,4.2-28.9,12.7-38.2c8.5-9.3,20.2-14,35.2-14
			c15.4,0,27.3,4.7,35.6,14c8.3,9.3,12.5,21.7,12.5,37.2v4.1c0,1.3-0.5,2.4-1.4,3.3c-0.9,0.9-2.1,1.4-3.5,1.4h-64.4v1.6
			c0.3,7.2,2.2,13.2,5.9,17.9c3.7,4.7,8.8,7.1,15.2,7.1c7.4,0,13.4-3,18-8.9c1.2-1.4,2.1-2.3,2.7-2.6c0.6-0.3,1.7-0.5,3.3-0.5h17.1
			c1.2,0,2.2,0.3,3,1c0.8,0.6,1.3,1.6,1.3,2.7c0,3.1-1.8,6.8-5.5,11c-3.7,4.2-9,7.9-15.8,11c-6.9,3.1-14.8,4.7-23.9,4.7
			C235.1,196.3,223.6,192.1,215.2,183.9z M270.7,135v-0.4c0-7.6-1.9-13.7-5.7-18.3c-3.8-4.6-9-6.9-15.6-6.9
			c-6.6,0-11.8,2.3-15.5,6.9c-3.8,4.6-5.6,10.7-5.6,18.3v0.4H270.7z"/>
		<path d="M336.9,185.1c-6-6.1-8.9-15.2-8.9-27.1v-43.8h-15.3c-1.3,0-2.4-0.5-3.3-1.4c-0.9-0.9-1.4-2-1.4-3.3V98.1
			c0-1.3,0.5-2.4,1.4-3.3c0.9-0.9,2-1.4,3.3-1.4H328V61.3c0-1.4,0.5-2.6,1.4-3.4c0.9-0.8,2-1.3,3.3-1.3h16.1c1.4,0,2.6,0.4,3.4,1.3
			c0.8,0.8,1.3,2,1.3,3.4v32.2h24.3c1.3,0,2.4,0.5,3.3,1.4c0.9,0.9,1.4,2,1.4,3.3v11.4c0,1.3-0.5,2.4-1.4,3.3
			c-0.9,0.9-2,1.4-3.3,1.4h-24.3v41.7c0,5.6,1,9.8,2.9,12.6c1.9,2.8,5.1,4.3,9.5,4.3h13.6c1.4,0,2.6,0.4,3.4,1.3
			c0.8,0.8,1.3,2,1.3,3.4v12.2c0,1.3-0.4,2.4-1.3,3.3c-0.8,0.9-2,1.4-3.4,1.4h-15.9C351.7,194.3,342.8,191.3,336.9,185.1z"/>
		<path d="M402.7,193c-0.9-0.9-1.4-2-1.4-3.3V98.3c0-1.4,0.5-2.6,1.4-3.5c0.9-0.9,2-1.4,3.3-1.4h15.9c1.4,0,2.6,0.5,3.5,1.4
			c0.9,0.9,1.4,2.1,1.4,3.5v8c6.5-8.5,15.8-12.8,27.9-12.8h8.1c1.4,0,2.6,0.4,3.4,1.3c0.8,0.8,1.3,2,1.3,3.4v14.2
			c0,1.3-0.4,2.4-1.3,3.3c-0.8,0.9-2,1.4-3.4,1.4h-15.3c-6.1,0-10.9,1.7-14.4,5.2s-5.2,8.3-5.2,14.4v53.2c0,1.3-0.5,2.4-1.4,3.3
			c-0.9,0.9-2,1.4-3.3,1.4h-17.3C404.7,194.3,403.6,193.9,402.7,193z"/>
		<path d="M490.7,184.6c-8.3-7.8-12.7-18.5-13.4-32.2l-0.2-8.5l0.2-8.5c0.6-13.6,5.2-24.3,13.6-32.1c8.4-7.8,20.1-11.7,35.1-11.7
			c14.9,0,26.5,3.9,34.9,11.7c8.4,7.8,12.9,18.5,13.6,32.1c0.1,1.6,0.2,4.4,0.2,8.5c0,4.1-0.1,7-0.2,8.5
			c-0.6,13.7-5.1,24.4-13.4,32.2c-8.3,7.8-20,11.6-35.1,11.6C510.8,196.3,499,192.4,490.7,184.6z M541.8,170.3
			c3.7-4.3,5.7-10.5,5.9-18.8c0.1-1.3,0.2-3.8,0.2-7.6c0-3.7-0.1-6.3-0.2-7.6c-0.3-8.3-2.3-14.6-6-18.9c-3.8-4.3-9-6.5-15.7-6.5
			c-6.9,0-12.2,2.2-15.9,6.5c-3.8,4.3-5.8,10.6-6,18.9l-0.2,7.6l0.2,7.6c0.3,8.3,2.3,14.5,6,18.8c3.8,4.3,9.1,6.4,15.9,6.4
			C532.9,176.7,538.2,174.5,541.8,170.3z"/>
	</g>
	<g>
		<path class="st5" d="M634.5,184.8c-7.2-6.4-10.8-15.9-10.8-28.5c0-5,0.5-10.1,1.4-15.1l9.4-53.4c0.8-5,1.2-8.1,1.2-9.2
			c0-2.9-0.8-5-2.3-6.4c-1.5-1.3-4.2-2.3-8.1-2.8c-0.4-2-0.6-4.2-0.6-6.8c0-1.2,0.1-3,0.4-5.4c6.4,0.4,15.7,0.6,28.1,0.6
			c12.4,0,22.1-0.2,29.3-0.6c0,4.3-0.7,8.3-2.2,12.2c-4.3,0.4-7.4,1.3-9.5,2.6c-2.1,1.3-3.5,3.3-4.4,5.9c-0.9,2.6-1.8,6.9-2.9,12.9
			l-8.6,49.4c-0.9,5.2-1.4,10.1-1.4,14.7c0,8.8,1.8,15.3,5.5,19.5c3.7,4.3,8.9,6.4,15.6,6.4c8.9,0,16.1-3.4,21.7-10.2
			c5.6-6.8,9.5-16.5,11.8-29.3l8.4-47.4c1.2-6.9,1.8-11.3,1.8-13.1c0-3.2-0.8-5.6-2.4-7.2c-1.6-1.6-4.4-3-8.4-4.2
			c-0.4-2-0.6-4-0.6-6.2c0-1.1,0.1-3.1,0.4-6c5.6,0.4,12.4,0.6,20.5,0.6c8.2,0,15.1-0.2,20.5-0.6c-0.3,4.5-1.1,8.6-2.4,12.2
			c-4.1,0.9-7.1,2.2-9.1,3.8c-1.9,1.6-3.4,4-4.4,7.2c-1,3.2-2.1,8.4-3.3,15.7l-7.6,43.4c-2.1,12.1-5.2,22.1-9.2,30.1
			c-4,8-9.6,14.1-16.7,18.3c-7.2,4.3-16.5,6.4-27.9,6.4C652.9,194.3,641.7,191.1,634.5,184.8z"/>
		<path class="st5" d="M770.6,79.4c0-3.1-0.9-5.3-2.6-6.9c-1.7-1.5-4.8-2.6-9.2-3.1c-0.4-2-0.6-4.2-0.6-6.8c0-1.2,0.1-3,0.4-5.4
			c5.7,0.4,15.3,0.6,28.9,0.6c13,0,22.8-0.2,29.5-0.6c-0.3,4.7-1.1,8.7-2.4,12.2c-3.7,0.5-6.5,1.4-8.3,2.5c-1.8,1.1-3.2,3-4.2,5.7
			c-1,2.7-2,6.9-3.1,12.7l-12.4,71.3c-0.8,5.3-1.2,8.6-1.2,10c0,2.7,0.8,4.7,2.4,6.2c1.6,1.5,4.5,2.5,8.8,3.2
			c0.5,3.2,0.8,5.6,0.8,7.2c0,0.9-0.1,2.6-0.4,5c-6.5-0.4-16-0.6-28.5-0.6c-11.8,0-21.7,0.2-29.7,0.6c0.4-4.6,1.3-8.7,2.8-12.2
			c3.7-0.5,6.4-1.3,8.2-2.3c1.7-1,3.1-2.7,4.1-5.1c1-2.4,2-6.2,2.9-11.6l12.8-73.9C770.3,84.2,770.6,81.2,770.6,79.4z"/>
	</g>
</g>
</svg>
