<svg width="24" height="24" viewBox="0 0 24 24" fill="none" xmlns="http://www.w3.org/2000/svg">
<path d="M8.00598 2.01416C7.45368 2.01416 7.00598 2.46216 7.00598 3.01416C4.79688 3.01416 3.00588 4.80516 3.00598 7.01416V8.07617L21.006 8.01416V7.01416C21.006 4.80516 19.2151 3.01416 17.006 3.01416C17.006 2.46216 16.5583 2.01416 16.006 2.01416C15.4537 2.01416 15.006 2.46216 15.006 3.01416H9.00598C9.00598 2.46216 8.55828 2.01416 8.00598 2.01416ZM3.00598 10.0142V17.0142C3.00598 19.2232 4.79688 21.0142 7.00598 21.0142H17.006C19.2151 21.0142 21.0061 19.2232 21.006 17.0142V10.0142H3.00598ZM8.00598 12.0142C8.55828 12.0142 9.00598 12.4622 9.00598 13.0142C9.00598 13.5662 8.55828 14.0142 8.00598 14.0142C7.45368 14.0142 7.00598 13.5662 7.00598 13.0142C7.00598 12.4622 7.45368 12.0142 8.00598 12.0142ZM12.006 12.0142C12.5583 12.0142 13.006 12.4622 13.006 13.0142C13.006 13.5662 12.5583 14.0142 12.006 14.0142C11.4537 14.0142 11.006 13.5662 11.006 13.0142C11.006 12.4622 11.4537 12.0142 12.006 12.0142ZM16.006 12.0142C16.5583 12.0142 17.006 12.4622 17.006 13.0142C17.006 13.5662 16.5583 14.0142 16.006 14.0142C15.4537 14.0142 15.006 13.5662 15.006 13.0142C15.006 12.4622 15.4537 12.0142 16.006 12.0142ZM8.00598 15.0142C8.55828 15.0142 9.00598 15.4622 9.00598 16.0142C9.00598 16.5662 8.55828 17.0142 8.00598 17.0142C7.45368 17.0142 7.00598 16.5662 7.00598 16.0142C7.00598 15.4622 7.45368 15.0142 8.00598 15.0142ZM12.006 15.0142C12.5583 15.0142 13.006 15.4622 13.006 16.0142C13.006 16.5662 12.5583 17.0142 12.006 17.0142C11.4537 17.0142 11.006 16.5662 11.006 16.0142C11.006 15.4622 11.4537 15.0142 12.006 15.0142ZM16.006 15.0142C16.5583 15.0142 17.006 15.4622 17.006 16.0142C17.006 16.5662 16.5583 17.0142 16.006 17.0142C15.4537 17.0142 15.006 16.5662 15.006 16.0142C15.006 15.4622 15.4537 15.0142 16.006 15.0142Z" fill="black"/>
</svg>
