<svg width="20" height="20" viewBox="0 0 20 20" fill="none" xmlns="http://www.w3.org/2000/svg">
<path d="M10.001 1.67847C9.12263 1.67847 8.2493 2.02431 7.5793 2.69431L2.68347 7.59013C1.34347 8.93096 1.34347 11.0935 2.68347 12.4343L7.5793 17.3301C8.92013 18.6701 11.0826 18.6701 12.4235 17.3301L17.3193 12.4343C18.6593 11.0935 18.6593 8.93096 17.3193 7.59013L12.4235 2.69431C11.7526 2.02431 10.8793 1.67847 10.001 1.67847ZM10.001 5.84513C10.4618 5.84513 10.8343 6.21847 10.8343 6.67847V10.8451C10.8343 11.306 10.4618 11.6785 10.001 11.6785C9.54096 11.6785 9.16763 11.306 9.16763 10.8451V6.67847C9.16763 6.21847 9.54096 5.84513 10.001 5.84513ZM10.001 12.5118C10.4618 12.5118 10.8343 12.8851 10.8343 13.3451C10.8343 13.806 10.4618 14.1785 10.001 14.1785C9.54096 14.1785 9.16763 13.806 9.16763 13.3451C9.16763 12.8851 9.54096 12.5118 10.001 12.5118Z" fill="#D73F28"/>
</svg>
