<svg width="24" height="24" viewBox="0 0 24 24" fill="none" xmlns="http://www.w3.org/2000/svg">
<path d="M12.0142 1.9989C6.49116 1.9989 2.01416 6.4759 2.01416 11.9989C2.01416 17.5219 6.49116 21.9989 12.0142 21.9989C17.5372 21.9989 22.0142 17.5219 22.0142 11.9989C22.0142 6.4759 17.5372 1.9989 12.0142 1.9989ZM12.0142 6.9989C12.5662 6.9989 13.0142 7.4469 13.0142 7.9989V12.9989C13.0142 13.5509 12.5662 13.9989 12.0142 13.9989C11.4622 13.9989 11.0142 13.5509 11.0142 12.9989V7.9989C11.0142 7.4469 11.4622 6.9989 12.0142 6.9989ZM12.0142 14.9989C12.5662 14.9989 13.0142 15.4469 13.0142 15.9989C13.0142 16.5509 12.5662 16.9989 12.0142 16.9989C11.4622 16.9989 11.0142 16.5509 11.0142 15.9989C11.0142 15.4469 11.4622 14.9989 12.0142 14.9989Z" fill="black"/>
</svg>
