<svg width="24" height="24" viewBox="0 0 24 24" fill="none" xmlns="http://www.w3.org/2000/svg">
<path d="M12.0012 2.01416C10.9472 2.01416 9.89916 2.42917 9.09516 3.23317L3.22016 9.10815C1.61216 10.7172 1.61216 13.3122 3.22016 14.9212L9.09516 20.7962C10.7042 22.4042 13.2992 22.4042 14.9082 20.7962L20.7832 14.9212C22.3912 13.3122 22.3912 10.7172 20.7832 9.10815L14.9082 3.23317C14.1032 2.42917 13.0552 2.01416 12.0012 2.01416ZM12.0012 7.01416C12.5542 7.01416 13.0012 7.46216 13.0012 8.01416V13.0142C13.0012 13.5672 12.5542 14.0142 12.0012 14.0142C11.4492 14.0142 11.0012 13.5672 11.0012 13.0142V8.01416C11.0012 7.46216 11.4492 7.01416 12.0012 7.01416ZM12.0012 15.0142C12.5542 15.0142 13.0012 15.4622 13.0012 16.0142C13.0012 16.5672 12.5542 17.0142 12.0012 17.0142C11.4492 17.0142 11.0012 16.5672 11.0012 16.0142C11.0012 15.4622 11.4492 15.0142 12.0012 15.0142Z" fill="black"/>
</svg>
