<svg width="24" height="24" viewBox="0 0 24 24" fill="none" xmlns="http://www.w3.org/2000/svg">
<path d="M12.0142 1.95319C6.49116 1.95319 2.01416 6.43019 2.01416 11.9532C2.01416 17.4762 6.49116 21.9532 12.0142 21.9532C17.5372 21.9532 22.0142 17.4762 22.0142 11.9532C22.0142 6.43019 17.5372 1.95319 12.0142 1.95319ZM12.0142 6.95319C13.6692 6.95319 15.0082 8.29719 15.0142 9.95319C15.0182 11.0622 14.4982 11.9972 13.6392 12.8592C13.4592 13.0402 13.2862 13.2142 13.0762 13.3912C12.9772 13.4752 12.7002 13.6782 12.6702 13.7032C12.2482 14.0592 11.6202 14.0322 11.2642 13.6092C10.9082 13.1872 10.9672 12.5282 11.3892 12.1722C11.4352 12.1332 11.6802 11.9302 11.7642 11.8592C11.9322 11.7182 12.0992 11.5872 12.2332 11.4532C12.7522 10.9312 13.0162 10.4312 13.0142 9.95319C13.0122 9.39719 12.5652 8.95319 12.0142 8.95319C11.5572 8.95319 11.1602 9.26919 11.0452 9.70319C10.9042 10.2372 10.3602 10.5632 9.82616 10.4222C9.29316 10.2812 8.96715 9.70618 9.10815 9.17218C9.45315 7.86518 10.6442 6.95319 12.0142 6.95319ZM12.0142 14.9532C12.5662 14.9532 13.0142 15.4012 13.0142 15.9532C13.0142 16.5052 12.5662 16.9532 12.0142 16.9532C11.4622 16.9532 11.0142 16.5052 11.0142 15.9532C11.0142 15.4012 11.4622 14.9532 12.0142 14.9532Z" fill="black"/>
</svg>
