<svg width="20" height="20" viewBox="0 0 20 20" fill="none" xmlns="http://www.w3.org/2000/svg">
<path d="M10.0118 1.66574C5.4093 1.66574 1.67847 5.39657 1.67847 9.99906C1.67847 14.6016 5.4093 18.3324 10.0118 18.3324C14.6143 18.3324 18.3451 14.6016 18.3451 9.99906C18.3451 5.39657 14.6143 1.66574 10.0118 1.66574ZM13.3451 7.49907C13.5585 7.49907 13.781 7.57074 13.9443 7.73324C14.2693 8.05907 14.2693 8.60573 13.9443 8.93156L10.8193 12.0307C9.86013 12.989 8.3943 12.8457 7.6418 11.7174L6.80847 10.4674C6.55347 10.0849 6.66012 9.55157 7.04346 9.29573C7.42596 9.04073 7.9593 9.14739 8.21513 9.53072L9.04846 10.7807C9.21679 11.0332 9.43264 11.0732 9.64681 10.8582L12.746 7.73324C12.9093 7.57074 13.1318 7.49907 13.3451 7.49907Z" fill="#34A854"/>
</svg>
