<svg width="24" height="24" viewBox="0 0 24 24" fill="none" xmlns="http://www.w3.org/2000/svg">
<path d="M11.9989 1.95319C6.4761 1.95319 1.9989 6.43019 1.9989 11.9532C1.9989 17.4762 6.4761 21.9532 11.9989 21.9532C17.5219 21.9532 21.9989 17.4762 21.9989 11.9532C21.9989 6.43019 17.5219 1.95319 11.9989 1.95319ZM8.9989 7.95319C9.2547 7.95319 9.5224 8.03919 9.7177 8.23419L11.9989 10.5152L14.2799 8.23419C14.4759 8.03919 14.7429 7.95319 14.9989 7.95319C15.2549 7.95319 15.5219 8.03919 15.7179 8.23419C16.1079 8.62519 16.1079 9.28118 15.7179 9.67218L13.4369 11.9532L15.7179 14.2342C16.1079 14.6252 16.1079 15.2812 15.7179 15.6722C15.3269 16.0622 14.6709 16.0622 14.2799 15.6722L11.9989 13.3912L9.7177 15.6722C9.3272 16.0622 8.6707 16.0622 8.2801 15.6722C7.8896 15.2812 7.8896 14.6252 8.2801 14.2342L10.5609 11.9532L8.2801 9.67218C7.8896 9.28118 7.8896 8.62519 8.2801 8.23419C8.4755 8.03919 8.743 7.95319 8.9989 7.95319Z" fill="black"/>
</svg>
